<?xml version="1.0" standalone="no"?>
<!DOCTYPE svg PUBLIC "-//W3C//DTD SVG 20010904//EN"
 "http://www.w3.org/TR/2001/REC-SVG-20010904/DTD/svg10.dtd">
<svg version="1.0" xmlns="http://www.w3.org/2000/svg"
 width="700.000000pt" height="700.000000pt" viewBox="0 0 700.000000 700.000000"
 preserveAspectRatio="xMidYMid meet">
<metadata>
Created by potrace 1.14, written by Peter Selinger 2001-2017
</metadata>
<g transform="translate(0.000000,700.000000) scale(0.100000,-0.100000)"
fill="#000000" stroke="none">
<path d="M1130 4900 c0 -14 -30 -45 -44 -46 -6 0 -17 5 -25 10 -9 7 -7 -1 5
-19 19 -30 19 -30 -1 -15 -11 8 -17 10 -13 6 4 -5 3 -15 -4 -23 -9 -11 -7 -12
8 -6 17 6 17 5 5 -10 -7 -9 -9 -17 -4 -17 11 0 11 -36 0 -46 -10 -11 -8 -24 4
-24 5 0 8 4 5 8 -3 5 1 9 9 9 9 0 11 -5 6 -11 -16 -21 -22 -48 -8 -40 9 6 9 5
0 -8 -11 -12 -9 -19 7 -38 21 -25 26 -35 11 -26 -5 3 -12 -1 -15 -10 -9 -24
-7 -27 9 -14 13 11 14 10 9 -5 -5 -12 -4 -16 4 -12 7 5 9 -4 6 -29 -3 -25 -1
-33 7 -28 8 4 9 3 5 -5 -4 -6 -13 -8 -19 -5 -8 5 -8 3 1 -7 6 -7 12 -20 12
-28 -1 -13 -3 -13 -14 2 -8 10 -16 15 -19 10 -3 -4 7 -17 21 -27 14 -11 22
-14 18 -8 -4 7 -2 12 3 12 14 0 14 -17 1 -25 -16 -10 -12 -28 5 -21 8 3 15 1
15 -4 0 -6 -8 -10 -17 -10 -17 -1 -17 -1 -1 -10 10 -6 14 -18 11 -30 -3 -12 0
-20 8 -20 7 0 9 -3 6 -7 -4 -3 -2 -12 4 -19 12 -15 3 -37 -12 -29 -5 4 -9 2
-9 -3 0 -17 13 -22 29 -9 14 10 14 10 4 -4 -12 -15 -11 -48 3 -72 4 -6 -2 -4
-13 6 -16 14 -20 15 -20 2 0 -8 2 -13 5 -10 2 2 11 -3 19 -11 9 -8 14 -16 12
-18 -2 -2 -13 -8 -24 -15 -19 -12 -19 -12 2 -6 29 8 40 -13 17 -31 -18 -14
-18 -15 6 -9 l25 6 -24 -21 -24 -21 24 4 c19 4 25 1 25 -14 0 -10 -4 -19 -8
-19 -4 0 -8 5 -8 10 0 6 -5 10 -10 10 -7 0 -7 -7 0 -20 6 -11 15 -18 20 -15 5
3 12 0 16 -6 4 -8 3 -9 -4 -5 -7 4 -12 1 -12 -8 0 -8 3 -16 8 -19 4 -2 2 -3
-4 -1 -6 1 -11 -4 -11 -12 0 -7 3 -11 7 -9 3 2 12 0 20 -6 13 -7 12 -9 -2 -9
-10 0 -18 -5 -18 -11 0 -6 7 -9 15 -5 8 3 15 1 15 -4 0 -6 -7 -10 -15 -10 -8
0 -15 -5 -15 -11 0 -6 6 -9 14 -6 8 3 20 -2 28 -11 12 -15 11 -16 -4 -3 -16
12 -18 11 -18 -6 0 -10 6 -25 13 -32 10 -11 10 -13 0 -7 -7 4 -13 2 -13 -4 0
-6 -4 -9 -8 -6 -5 3 -9 -1 -9 -9 0 -11 3 -12 14 -3 10 8 17 8 26 -2 9 -10 9
-11 0 -6 -8 4 -13 1 -13 -8 0 -8 6 -14 13 -12 6 1 9 1 4 -2 -4 -2 -12 -12 -17
-23 -8 -15 -7 -17 5 -13 8 3 13 9 10 13 -2 4 2 8 10 8 9 0 11 -4 6 -11 -5 -6
-7 -20 -5 -30 1 -11 -2 -29 -8 -40 l-11 -21 24 20 c13 11 19 13 13 5 -21 -28
-24 -60 -6 -61 14 0 13 -2 -3 -9 l-20 -9 20 0 c17 -1 17 -3 5 -11 -12 -8 -12
-10 5 -10 15 0 17 -2 6 -9 -11 -7 -10 -11 5 -20 16 -9 16 -10 3 -11 -9 0 -23
10 -31 21 -14 21 -14 21 -14 1 0 -11 5 -20 10 -19 6 1 10 -3 11 -10 0 -6 4
-15 9 -20 5 -4 7 -3 3 3 -3 6 0 11 8 11 11 0 12 -4 4 -13 -5 -6 -12 -21 -14
-32 -3 -16 0 -19 13 -15 14 5 15 3 5 -8 -7 -7 -13 -18 -13 -24 0 -5 5 -3 10 5
8 13 10 12 10 -2 0 -10 4 -18 9 -18 8 0 7 -19 -3 -65 -2 -11 -8 -19 -13 -18
-15 3 -11 -25 3 -31 8 -3 16 0 20 6 4 7 3 8 -4 4 -16 -10 -14 5 3 28 13 17 14
16 9 -20 -10 -71 -9 -87 6 -91 10 -3 11 -2 4 4 -13 10 -14 43 -1 43 5 0 7 -7
4 -15 -4 -8 -2 -17 3 -20 5 -3 7 -12 4 -20 -4 -8 -11 -12 -17 -8 -6 3 -7 1 -3
-5 4 -7 14 -12 22 -12 8 0 14 -9 14 -21 0 -19 1 -19 16 -5 19 20 31 21 14 2
-9 -12 -8 -15 9 -13 11 0 18 4 15 8 -2 3 7 7 21 7 14 0 23 -4 20 -8 -2 -3 2
-7 10 -7 8 0 12 3 10 6 -2 4 7 11 20 18 18 8 24 8 22 -1 -1 -6 4 -10 11 -8 6
1 12 -3 12 -9 0 -5 5 -7 10 -4 8 5 7 12 -2 23 -12 15 -11 16 5 3 11 -8 34 -14
52 -13 18 2 37 -2 40 -8 5 -8 15 -6 32 5 15 10 22 12 18 4 -6 -9 -3 -11 8 -6
10 3 17 2 17 -4 0 -6 8 -5 21 2 35 18 68 19 61 1 -4 -11 -2 -13 8 -7 10 6 12
4 7 -9 -4 -10 -3 -15 3 -11 6 3 8 18 4 33 l-5 27 15 -25 c8 -14 15 -19 16 -11
0 9 8 11 26 7 19 -5 24 -4 18 6 -5 8 -1 8 11 -2 10 -8 16 -10 12 -3 -4 6 -3
14 2 17 5 4 13 1 17 -5 4 -8 3 -9 -4 -5 -8 5 -10 1 -5 -10 6 -16 8 -15 16 4 6
12 14 23 19 23 4 1 13 2 18 3 6 0 10 5 10 9 -1 4 6 15 15 23 8 9 13 19 10 24
-3 5 1 11 7 13 7 3 2 6 -11 6 -24 1 -24 1 -5 15 10 8 16 18 11 22 -4 4 -7 2
-7 -4 0 -7 -4 -12 -8 -12 -5 0 -7 14 -4 30 2 17 0 30 -6 30 -6 0 -9 8 -7 18 2
9 4 17 6 17 1 0 3 10 4 22 1 13 -2 20 -8 16 -7 -4 -8 0 -3 12 5 14 4 15 -7 7
-10 -9 -13 -4 -12 21 1 18 -4 36 -9 40 -7 6 -5 7 5 4 9 -3 16 1 16 9 0 9 -6
13 -16 9 -12 -5 -13 -3 -4 6 13 13 6 42 -8 33 -5 -3 -6 2 -3 11 4 9 11 12 18
8 7 -5 4 -1 -6 9 -18 16 -25 34 -10 24 11 -6 8 62 -3 72 -5 4 -6 2 -2 -3 8
-15 -8 -40 -17 -26 -4 6 -3 11 1 11 5 0 10 14 11 30 1 17 -2 30 -8 30 -5 0
-10 5 -10 11 0 6 7 8 16 5 14 -5 15 -4 4 9 -7 8 -17 12 -24 8 -7 -5 -7 -2 1 8
10 12 9 21 -2 43 -8 15 -12 32 -9 38 3 5 7 20 9 34 2 18 -1 22 -10 14 -9 -8
-11 -4 -7 16 3 16 -1 30 -9 35 -10 6 -10 9 -1 9 6 0 12 8 12 18 0 13 -2 14 -9
4 -7 -11 -9 -11 -14 2 -4 9 -3 15 1 15 21 -3 24 3 6 17 -19 15 -19 16 0 9 19
-6 19 -5 3 13 -13 15 -14 21 -4 33 7 8 8 11 3 7 -30 -24 -30 10 0 43 11 13 13
19 4 14 -21 -13 -60 -18 -41 -6 7 5 11 14 7 20 -5 7 -1 8 11 4 16 -6 16 -5 4
10 -7 9 -18 14 -25 11 -6 -3 -2 2 8 10 17 14 15 20 -6 17 -9 -1 -4 27 7 36 4
4 5 2 0 -6 -5 -10 -4 -12 4 -7 6 4 9 12 5 17 -3 5 -10 7 -15 4 -9 -6 -14 29
-9 69 1 12 -3 16 -12 11 -7 -3 -4 1 6 9 11 9 14 16 7 16 -7 0 -9 5 -5 13 6 8
3 8 -9 -1 -14 -12 -15 -11 -8 16 6 20 5 34 -2 41 -8 8 -8 11 2 11 7 0 9 5 6
10 -5 8 -12 7 -23 -2 -12 -9 -11 -6 2 10 14 17 16 22 5 22 -11 0 -11 2 1 10 9
6 11 10 3 10 -8 0 -10 7 -6 18 6 15 5 16 -12 2 -17 -14 -17 -14 -5 7 11 17 11
24 1 36 -9 12 -9 17 0 23 8 5 10 3 4 -7 -5 -8 -4 -10 0 -6 13 12 15 36 3 44
-6 3 -8 2 -5 -4 3 -5 0 -10 -8 -10 -13 0 -13 4 1 25 14 22 15 24 1 19 -12 -4
-14 0 -11 20 3 15 0 30 -8 34 -10 7 -10 9 2 9 13 0 13 1 0 10 -13 8 -13 10 -1
10 11 0 10 4 -5 16 -19 15 -19 16 0 9 20 -6 20 -6 0 16 -16 18 -16 21 -2 16
21 -8 18 22 -5 34 -9 5 -14 16 -11 24 4 8 1 15 -6 15 -6 0 -9 4 -6 9 3 5 -24
9 -61 10 -36 1 -73 7 -82 14 -12 9 -13 9 -7 0 5 -9 1 -13 -13 -13 -11 0 -23
-5 -26 -10 -8 -13 -25 -3 -25 13 0 8 3 8 9 -2 5 -8 11 -9 15 -3 3 5 0 12 -7
15 -14 5 -39 -6 -38 -17 2 -16 0 -18 -11 -9 -20 16 -90 24 -82 10 4 -7 -2 -4
-13 6 -16 14 -23 15 -29 6 -4 -8 -3 -10 4 -5 7 4 12 2 12 -4 0 -7 -6 -10 -14
-7 -7 3 -20 0 -27 -6 -11 -10 -11 -9 -1 5 10 12 10 18 1 24 -7 4 -9 3 -6 -2 3
-6 -2 -15 -12 -21 -14 -9 -18 -8 -18 3 0 7 5 10 10 7 6 -3 7 -1 3 6 -6 9 -11
9 -21 1 -8 -7 -24 -9 -36 -5 -16 6 -20 4 -14 -6 5 -8 -1 -6 -12 4 -16 14 -23
15 -29 6 -4 -8 -3 -10 4 -5 7 4 12 2 12 -3 0 -16 -11 -13 -33 7 -11 9 -18 13
-15 7 3 -5 -1 -17 -10 -25 -14 -13 -15 -12 -9 3 3 9 2 19 -3 22 -6 4 -10 1
-10 -5z m-35 -258 c-3 -3 -11 0 -18 7 -9 10 -8 11 6 5 10 -3 15 -9 12 -12z
m885 -1222 c0 -5 -2 -10 -4 -10 -3 0 -8 5 -11 10 -3 6 -1 10 4 10 6 0 11 -4
11 -10z m20 -154 c0 -3 -4 -8 -10 -11 -5 -3 -10 -1 -10 4 0 6 5 11 10 11 6 0
10 -2 10 -4z m-26 -32 c3 -8 2 -12 -4 -9 -6 3 -10 10 -10 16 0 14 7 11 14 -7z
m-323 -47 c-10 -9 -11 -8 -5 6 3 10 9 15 12 12 3 -3 0 -11 -7 -18z"/>
<path d="M1460 4906 c0 -2 8 -10 18 -17 15 -13 16 -12 3 4 -13 16 -21 21 -21
13z"/>
<path d="M1686 4898 c3 -5 10 -6 15 -3 13 9 11 12 -6 12 -8 0 -12 -4 -9 -9z"/>
<path d="M3141 4899 c-1 -9 -9 -23 -18 -30 -9 -8 -14 -9 -10 -3 4 7 -1 18 -10
25 -14 12 -16 12 -8 0 6 -11 4 -13 -7 -9 -8 4 -15 0 -15 -8 0 -7 5 -10 10 -7
6 4 7 1 2 -6 -4 -7 -16 -11 -26 -8 -16 4 -17 2 -9 -14 8 -14 7 -17 -3 -13 -19
7 -42 -21 -26 -32 8 -5 9 -3 4 6 -6 9 -4 11 5 5 9 -6 11 -4 5 5 -5 9 -4 11 4
6 16 -10 -5 -37 -24 -30 -7 3 -16 0 -21 -7 -4 -8 -3 -10 4 -5 7 4 12 1 12 -8
0 -8 -5 -18 -10 -21 -6 -4 -7 -11 -4 -17 4 -7 2 -8 -4 -4 -7 4 -13 2 -13 -3
-1 -6 -2 -17 -3 -23 -1 -7 -11 -13 -23 -12 -20 0 -20 -1 -5 -25 16 -25 16 -25
-2 -11 -18 14 -19 13 -14 -12 3 -15 1 -25 -3 -22 -5 3 -17 0 -26 -6 -14 -9
-14 -10 -2 -7 9 3 16 -1 16 -8 0 -7 -8 -12 -17 -10 -9 2 -17 -3 -17 -10 0 -7
7 -11 16 -8 13 4 13 2 -1 -10 -10 -8 -15 -17 -11 -20 6 -6 -29 -12 -50 -8 -5
1 -6 -3 -2 -8 3 -6 11 -8 19 -5 7 3 13 -2 13 -10 0 -8 -5 -12 -10 -9 -6 4 -8
-2 -5 -15 4 -15 2 -19 -8 -15 -8 3 -14 9 -14 14 0 5 -5 9 -12 9 -6 0 -4 -8 6
-19 13 -14 14 -21 5 -27 -8 -5 -10 -3 -4 7 8 12 6 12 -8 0 -15 -12 -15 -31 -1
-31 3 0 2 5 -2 12 -4 7 -3 8 5 4 16 -10 2 -29 -18 -23 -10 2 -18 -1 -18 -9 0
-7 4 -11 8 -8 4 2 10 0 14 -6 3 -6 -4 -10 -17 -10 -16 0 -19 -3 -10 -8 16 -11
5 -42 -15 -42 -13 0 -13 -3 -3 -15 11 -13 10 -14 -3 -9 -13 4 -15 1 -12 -16 2
-13 2 -20 -1 -17 -4 3 -11 1 -18 -4 -6 -5 -20 -17 -31 -25 -20 -15 -19 -15 2
-5 36 18 40 12 8 -14 -20 -17 -23 -23 -10 -18 17 6 18 5 5 -9 -9 -9 -19 -12
-25 -8 -7 6 -11 2 -11 -9 0 -10 5 -18 11 -17 5 2 7 1 2 -1 -4 -3 -4 -9 -1 -15
4 -6 -1 -6 -14 1 -16 8 -23 7 -33 -7 -12 -15 -12 -16 2 -5 21 17 32 5 13 -15
-9 -8 -13 -23 -11 -33 3 -13 0 -16 -11 -12 -10 4 -13 2 -8 -5 4 -8 0 -12 -11
-13 -16 0 -16 -1 2 -9 11 -5 14 -9 6 -9 -8 -1 -11 -7 -6 -18 5 -15 4 -16 -6
-5 -7 6 -17 12 -23 12 -5 0 -6 -3 -3 -6 3 -4 2 -16 -4 -28 -10 -20 -10 -20 5
-2 9 11 16 16 16 10 0 -5 -10 -20 -21 -34 -11 -14 -18 -20 -15 -13 7 13 -19
12 -31 -2 -4 -4 -2 -5 5 -1 17 10 29 -24 12 -34 -7 -5 -10 -15 -6 -25 6 -16 4
-16 -11 -4 -15 12 -16 12 -10 -5 6 -14 4 -17 -8 -12 -11 4 -14 2 -8 -7 11 -18
13 -38 2 -31 -5 3 -7 9 -5 13 3 4 -1 8 -8 8 -7 0 -13 -6 -13 -14 0 -7 4 -13 9
-13 4 0 8 -5 8 -11 0 -6 -6 -9 -14 -6 -21 8 -37 -13 -25 -35 14 -27 0 -46 -18
-23 -16 23 -17 12 -1 -18 10 -20 9 -21 -5 -9 -13 11 -15 10 -10 -6 2 -10 -3
-26 -11 -35 -12 -11 -13 -17 -3 -20 6 -3 4 -6 -7 -6 -15 -1 -16 -4 -6 -16 7
-9 10 -18 6 -22 -3 -3 -6 -1 -6 5 0 20 -14 13 -27 -13 -6 -15 -7 -25 -1 -25 5
0 6 -5 3 -11 -5 -6 -12 -4 -21 8 -12 16 -13 15 -8 -11 4 -21 1 -27 -9 -23 -7
3 -14 -1 -14 -9 0 -7 4 -11 9 -8 5 4 4 -3 -3 -14 -7 -12 -16 -19 -20 -16 -4 2
-10 -3 -13 -12 -3 -9 -11 -12 -18 -8 -10 5 -10 4 0 -7 11 -12 14 -12 22 1 5 8
12 11 17 6 4 -4 0 -12 -10 -17 -9 -6 -17 -17 -17 -24 0 -8 -3 -14 -8 -12 -4 1
-8 -2 -9 -6 -1 -4 -12 -16 -24 -26 -17 -14 -19 -20 -9 -26 8 -5 11 -4 6 3 -3
6 -2 13 3 16 5 4 8 -2 7 -11 -2 -10 -12 -18 -22 -18 -21 0 -24 -8 -10 -22 5
-5 6 -2 1 6 -5 10 -4 12 4 7 18 -12 1 -27 -22 -20 -21 6 -21 6 -3 -8 13 -11
16 -17 7 -22 -6 -4 -9 -12 -6 -17 4 -5 -2 -6 -12 -2 -15 6 -16 4 -6 -9 13 -15
8 -28 -11 -28 -6 0 -4 5 4 10 13 8 13 10 -2 10 -10 0 -16 -7 -15 -19 0 -11 6
-17 12 -15 5 3 2 -1 -9 -10 -30 -24 -14 -44 32 -39 23 3 43 0 47 -6 4 -7 13
-8 23 -3 25 13 90 14 97 2 4 -7 12 -7 25 0 23 12 33 13 26 2 -3 -5 1 -9 9 -9
8 0 12 4 9 8 -2 4 1 11 7 15 8 4 9 3 5 -4 -4 -7 -1 -12 9 -12 9 0 14 4 11 9
-4 5 3 7 14 4 11 -3 20 -10 20 -15 0 -5 5 -6 10 -3 8 5 7 12 -2 22 -12 15 -11
15 9 2 15 -9 19 -17 13 -23 -6 -6 -10 -15 -10 -20 0 -6 5 -3 11 7 9 15 13 16
27 5 15 -11 15 -11 4 3 -10 14 -10 18 1 22 8 3 20 1 28 -3 8 -5 19 -4 27 2 10
9 12 8 10 -2 -2 -8 6 -15 17 -17 16 -3 17 -2 5 6 -12 8 -12 12 -2 21 6 5 10 7
7 4 -16 -23 62 -41 82 -20 5 5 1 6 -7 1 -8 -5 -12 -4 -7 0 15 17 36 14 30 -3
-6 -16 -5 -16 13 -1 10 9 25 14 33 11 10 -3 12 0 8 11 -3 9 -2 19 4 22 5 4 8
3 7 -2 -2 -4 2 -9 7 -10 6 -2 10 2 10 7 0 6 5 14 10 18 21 14 66 83 68 101 1
11 7 17 14 14 7 -3 13 2 13 12 0 10 -5 13 -12 9 -7 -4 -8 -3 -4 5 4 6 12 8 18
5 7 -5 9 1 5 15 -3 13 -3 20 0 17 3 -3 14 -1 25 5 16 9 17 13 6 27 -11 13 -11
15 5 9 13 -5 17 -1 18 21 1 15 1 31 0 36 -1 5 5 3 14 -4 13 -11 14 -10 8 5 -5
15 -3 17 10 12 15 -6 16 -4 6 14 -6 11 -8 23 -5 27 3 3 6 -1 6 -9 0 -11 2 -11
10 1 14 21 12 33 -2 24 -8 -4 -10 -3 -5 2 5 5 14 9 20 9 5 0 12 6 15 14 3 9 0
11 -8 6 -9 -5 -11 -4 -6 4 5 7 17 9 29 5 22 -6 22 -6 2 10 -17 13 -18 15 -3
16 9 0 20 5 24 12 5 7 3 8 -6 3 -8 -5 -11 -3 -8 6 3 8 11 13 17 11 9 -2 9 3 0
20 -11 21 -11 22 5 9 9 -8 16 -10 15 -5 -4 23 2 35 14 28 8 -6 8 -3 -1 9 -12
14 -11 16 9 12 17 -4 20 -2 11 7 -15 15 -16 31 0 22 8 -5 9 -2 5 10 -5 11 -3
15 5 10 8 -5 9 -2 5 9 -3 9 -2 19 4 22 5 4 6 11 3 17 -4 7 -2 8 5 4 9 -6 9
-12 -1 -24 -12 -15 -11 -16 4 -4 9 8 15 19 12 27 -3 7 0 16 7 21 8 5 10 3 4
-6 -5 -9 -4 -11 4 -6 9 6 9 11 -1 24 -8 9 -8 13 -2 9 7 -4 15 0 18 9 4 10 2
13 -6 8 -7 -4 -8 -3 -4 4 4 7 13 12 21 12 8 0 17 5 21 11 4 8 -1 9 -17 5 -21
-6 -21 -5 -6 4 10 6 14 16 10 23 -4 7 2 5 12 -3 11 -9 16 -10 11 -2 -4 7 -2
12 6 12 9 0 9 3 -2 10 -10 6 -11 10 -2 10 6 0 12 5 12 11 0 5 -5 7 -12 3 -7
-4 -8 -3 -4 5 6 9 11 9 21 1 9 -8 12 -5 11 12 -1 13 4 30 12 40 7 9 15 24 16
34 2 10 9 20 17 22 11 3 11 1 -1 -7 -8 -6 -10 -11 -4 -11 19 0 24 13 11 28
-10 13 -9 14 11 3 l23 -12 -18 28 c-16 26 -16 27 0 14 15 -12 17 -12 11 3 -4
10 0 18 11 22 13 6 14 9 3 16 -9 7 -7 8 9 5 15 -3 20 -1 16 9 -3 8 -8 12 -12
9 -4 -2 -8 2 -8 10 0 11 5 12 20 3 12 -6 17 -6 13 0 -7 12 18 34 29 24 5 -4 5
-1 1 6 -6 10 -11 10 -22 1 -10 -8 -14 -8 -14 -1 0 6 9 16 20 22 11 6 20 16 20
23 0 7 -4 6 -10 -3 -5 -8 -10 -10 -10 -4 0 19 13 24 28 11 13 -10 14 -9 4 10
-8 14 -9 24 -2 28 6 4 8 10 5 15 -3 5 6 7 21 4 24 -4 25 -3 10 11 -20 21 -20
26 1 18 9 -4 14 -2 11 3 -6 12 28 44 38 36 4 -4 4 -2 0 5 -3 6 2 17 11 23 16
10 16 11 1 6 -10 -3 -20 -1 -23 4 -4 6 1 10 11 10 14 0 15 2 3 18 -7 9 -10 14
-5 10 4 -3 16 2 27 13 22 22 25 34 7 23 -9 -5 -8 -2 1 10 8 9 21 14 29 11 13
-5 13 -3 1 12 -13 15 -12 16 6 9 15 -5 17 -4 8 5 -18 18 14 78 38 74 16 -3 17
-1 9 16 -7 12 -7 19 -1 19 6 0 9 6 7 13 -1 6 -1 9 1 4 3 -4 9 -4 14 -1 6 4 6
11 -1 19 -9 10 -7 13 6 11 21 -3 32 -26 12 -26 -10 0 -9 -3 2 -10 11 -7 11
-10 2 -10 -7 0 -10 -5 -7 -10 4 -6 12 -7 18 -4 7 4 1 -5 -13 -18 -14 -14 -29
-23 -33 -21 -5 3 -3 -4 4 -15 7 -12 17 -18 23 -15 5 3 6 1 2 -6 -4 -6 -13 -11
-19 -10 -7 1 -19 1 -27 0 -13 -1 -13 -3 -1 -10 8 -5 20 -7 28 -4 7 3 13 0 13
-7 0 -6 -5 -8 -11 -5 -6 4 -9 1 -8 -6 1 -8 -1 -22 -6 -32 -4 -9 -5 -26 -2 -36
3 -14 1 -18 -9 -14 -8 3 -14 0 -14 -6 0 -6 6 -11 13 -11 9 0 8 -3 -2 -9 -11
-7 -11 -9 0 -13 8 -3 11 -9 7 -13 -4 -4 -14 -2 -23 5 -10 8 -15 9 -15 1 0 -6
5 -11 11 -11 5 0 7 -5 3 -12 -4 -6 -3 -8 4 -4 6 3 14 1 18 -5 4 -8 3 -9 -4 -5
-8 4 -16 -3 -22 -19 -12 -32 -12 -38 -1 -31 10 7 23 -19 13 -28 -13 -14 -9
-34 7 -31 9 1 15 9 15 18 -2 19 28 16 34 -4 3 -11 1 -11 -8 1 -9 12 -11 12 -8
1 2 -8 12 -15 22 -17 11 -2 16 2 12 11 -3 10 0 12 11 8 12 -5 14 -3 8 7 -5 9
-4 11 4 6 6 -4 9 -11 6 -16 -3 -4 2 -11 11 -14 9 -3 12 -11 8 -18 -4 -8 -3
-10 2 -5 9 9 11 13 13 44 1 13 4 14 13 5 16 -16 48 -15 48 1 0 8 3 9 8 1 4 -6
20 -10 35 -10 16 1 31 -3 34 -8 3 -5 2 -6 -3 -3 -6 3 -16 1 -24 -4 -11 -7 -8
-8 10 -5 17 2 24 9 22 20 -2 9 2 16 8 16 5 0 9 -3 9 -7 -4 -22 3 -32 20 -30
11 0 17 5 15 9 -3 5 -11 5 -17 2 -9 -5 -9 -4 -1 5 6 6 18 9 27 5 13 -5 15 -10
6 -27 -9 -18 -7 -18 10 3 14 18 16 27 8 33 -8 6 -7 7 3 4 9 -2 14 -14 13 -28
-1 -13 0 -18 3 -11 3 6 10 10 15 7 5 -4 6 1 3 9 -3 9 -1 16 5 16 6 0 11 -7 11
-15 0 -8 5 -15 11 -15 6 0 9 7 6 14 -4 11 -1 13 10 9 10 -4 14 -2 10 4 -4 7
-1 10 8 9 16 -2 21 -21 6 -21 -5 0 -13 -3 -17 -7 -3 -4 3 -5 16 -3 12 2 29 12
37 22 8 10 11 12 7 4 -5 -11 -3 -13 9 -8 10 3 17 2 17 -3 0 -6 -8 -10 -17 -10
-9 0 -14 -3 -10 -6 8 -8 48 6 43 15 -3 4 4 7 14 7 10 0 17 -3 14 -7 -2 -4 3
-10 12 -13 8 -3 13 -9 10 -14 -2 -4 -1 -14 4 -21 5 -9 7 -3 7 17 -1 17 -5 28
-9 26 -5 -3 -8 0 -8 5 0 10 11 14 28 9 4 -1 5 -9 3 -18 -2 -11 2 -11 18 4 12
11 21 15 21 10 0 -5 5 -2 11 6 9 13 10 13 6 0 -2 -8 -10 -14 -16 -13 -6 2 -11
-1 -11 -6 0 -6 9 -9 20 -8 11 1 20 7 20 14 0 6 5 15 12 19 7 5 9 2 5 -9 -3 -9
0 -18 9 -21 9 -3 12 -1 9 4 -3 6 1 10 9 10 9 0 16 5 16 12 0 6 6 3 14 -7 8
-11 13 -22 11 -26 -2 -3 2 -6 10 -6 8 0 11 5 7 11 -10 17 -11 37 -1 30 5 -3 6
-10 3 -16 -5 -7 -2 -9 8 -5 21 7 12 -32 -11 -52 -14 -12 -14 -13 7 -8 12 3 22
1 22 -4 0 -8 -15 -13 -32 -10 -14 2 -8 -17 6 -22 8 -3 13 -14 11 -24 -2 -10
-4 -20 -4 -22 -1 -2 -10 4 -22 15 -20 18 -20 17 2 -20 13 -22 18 -37 12 -33
-6 4 -14 3 -18 -3 -3 -5 -1 -10 4 -10 6 0 3 -9 -6 -20 -19 -21 -26 -50 -13
-50 14 0 21 18 9 22 -7 2 -6 8 4 16 12 10 14 8 11 -15 -1 -15 -8 -29 -13 -31
-6 -2 -9 -8 -5 -13 3 -5 -2 -9 -10 -9 -8 0 -18 -5 -22 -12 -5 -7 -2 -9 8 -5
20 7 31 -28 14 -42 -7 -6 -12 -26 -11 -45 0 -19 -3 -32 -7 -30 -4 3 -8 0 -8
-6 0 -6 -4 -9 -9 -5 -5 3 -13 0 -17 -6 -4 -8 -3 -9 4 -5 6 3 16 -2 22 -13 7
-14 7 -22 -2 -27 -7 -5 -8 -3 -3 6 5 9 4 11 -4 6 -9 -6 -9 -11 1 -23 16 -20
14 -25 -7 -33 -16 -6 -16 -7 -1 -23 15 -14 15 -17 2 -17 -8 0 -20 8 -25 18
-14 23 -14 6 0 -19 6 -11 15 -17 22 -12 9 5 9 3 1 -8 -6 -8 -10 -22 -9 -31 3
-15 0 -16 -18 -7 -20 9 -20 9 2 -10 13 -12 18 -21 12 -21 -9 0 -9 -6 -1 -22
11 -22 10 -22 -4 -4 -9 10 -13 23 -9 29 3 6 1 7 -5 3 -6 -4 -8 -14 -5 -23 5
-12 3 -14 -7 -8 -8 5 -11 4 -6 -3 3 -5 0 -13 -6 -16 -7 -3 -4 -4 7 -1 17 4 21
0 20 -24 0 -16 -3 -27 -6 -25 -4 2 -12 -3 -18 -10 -9 -11 -9 -16 0 -22 7 -4 9
-3 6 3 -3 5 0 10 8 10 11 0 12 -4 3 -14 -6 -7 -20 -11 -32 -8 -12 3 -15 2 -8
-1 6 -3 12 -10 12 -15 0 -6 -4 -8 -9 -5 -11 7 -8 -21 4 -31 4 -4 5 -3 2 3 -4
7 0 17 8 24 19 16 19 0 1 -25 -10 -13 -11 -25 -5 -37 6 -11 5 -19 -3 -24 -6
-4 -8 -3 -4 4 3 6 1 14 -6 18 -7 4 -10 4 -6 -1 4 -4 2 -15 -5 -23 -8 -11 -8
-14 0 -9 6 4 14 3 18 -3 3 -5 -1 -10 -9 -10 -9 0 -16 -5 -16 -11 0 -5 5 -7 10
-4 6 3 10 1 10 -5 0 -6 5 -8 12 -4 7 4 8 3 4 -4 -4 -6 -14 -8 -22 -5 -14 5
-15 3 -5 -16 9 -16 9 -21 0 -19 -6 2 -14 -3 -17 -11 -3 -8 0 -11 6 -7 6 4 10
-2 9 -14 -1 -11 -4 -20 -8 -20 -4 0 -6 -12 -4 -26 1 -14 -4 -32 -12 -40 -13
-12 -12 -14 2 -14 9 0 13 -4 10 -10 -3 -5 -1 -10 5 -10 7 0 9 9 6 23 -3 12 -3
16 0 9 3 -6 11 -9 16 -6 7 5 8 2 3 -6 -6 -10 -4 -12 9 -7 10 4 20 7 22 7 3 0
2 6 -2 13 -6 8 -3 8 9 -1 9 -8 21 -11 26 -8 5 4 13 1 17 -5 4 -8 3 -9 -4 -5
-7 4 -12 3 -12 -3 0 -5 9 -9 19 -8 11 0 18 4 16 7 -2 3 7 10 20 17 18 8 24 8
22 -1 -1 -6 4 -10 11 -8 6 1 12 -3 12 -9 0 -5 5 -7 10 -4 8 5 7 12 -2 23 -12
15 -11 16 5 3 11 -8 34 -14 52 -13 18 2 36 -2 40 -8 4 -7 12 -7 25 0 23 12 33
13 26 2 -3 -5 1 -9 9 -9 8 0 12 3 10 6 -2 4 7 11 20 18 18 8 24 8 22 -1 -1 -6
4 -10 11 -8 6 1 12 -3 12 -9 0 -5 5 -7 10 -4 8 5 7 12 -2 22 -12 15 -11 15 9
3 18 -12 20 -17 10 -30 -10 -13 -10 -13 4 -3 9 7 20 9 24 5 5 -4 5 -1 0 7 -6
10 -2 11 15 6 13 -4 20 -3 17 2 -7 11 71 2 90 -10 6 -4 15 -2 18 4 4 5 13 8
19 6 7 -3 13 1 13 8 0 11 -5 11 -21 4 -20 -10 -21 -10 -2 5 11 9 25 16 32 16
6 0 18 8 25 17 8 10 9 14 2 10 -6 -4 -14 -3 -17 2 -4 5 5 8 19 6 25 -2 25 -2
8 18 -10 11 -12 17 -5 13 9 -5 13 -3 11 5 -3 29 2 38 19 33 14 -5 15 -4 2 5
-16 11 -20 39 -8 56 4 6 5 23 4 38 -3 23 -1 25 12 15 10 -9 13 -9 9 -1 -4 6
-1 14 5 16 8 3 6 6 -5 6 -10 1 -15 6 -12 11 4 6 11 8 16 5 5 -3 6 2 2 11 -5
13 -3 15 8 9 8 -5 6 1 -5 13 -17 20 -18 22 -2 28 13 5 14 9 6 14 -9 6 -9 13
-1 29 7 12 9 26 6 31 -3 6 -2 10 3 10 5 0 8 11 7 25 -2 16 2 25 11 25 8 0 14
4 14 10 0 5 -8 7 -17 4 -14 -5 -15 -4 -4 4 7 5 10 15 7 21 -4 6 -3 11 2 11 5
0 9 7 9 15 0 8 -4 15 -9 15 -5 0 -3 6 4 14 7 8 16 12 19 10 4 -2 6 4 5 14 0 9
-8 20 -16 24 -12 5 -11 7 3 7 10 1 15 6 12 11 -3 6 0 10 7 10 9 0 9 3 -2 10
-13 9 -12 13 7 29 19 16 20 20 7 25 -10 4 -13 2 -8 -6 4 -7 3 -8 -4 -4 -9 5
-9 13 -2 27 13 24 21 25 14 2 -5 -15 -4 -15 6 1 9 13 9 20 1 25 -6 4 -8 18 -5
31 4 14 6 36 6 49 0 15 3 19 8 12 5 -10 9 -9 13 3 4 9 1 16 -6 16 -8 0 -8 3 2
9 11 7 11 9 0 14 -10 4 -10 6 2 6 12 1 15 8 12 25 -3 13 0 27 6 30 6 4 11 13
11 19 0 7 -4 6 -10 -3 -8 -13 -8 0 -1 63 1 4 6 7 12 7 6 0 7 -5 2 -12 -11 -19
-13 -39 -1 -32 5 3 7 9 4 12 -3 3 -1 11 5 19 6 7 8 13 4 13 -4 0 -1 7 6 16 15
19 22 77 8 68 -6 -3 -8 -12 -5 -20 3 -8 0 -11 -9 -8 -19 8 3 45 25 41 8 -1 14
4 12 11 -1 8 2 11 7 8 5 -3 7 -16 5 -29 -2 -12 -2 -16 2 -9 3 6 10 10 15 7 5
-4 6 1 3 10 -5 11 -2 14 11 9 10 -4 21 -1 26 7 5 8 9 9 9 3 0 -12 27 -15 50
-7 25 10 39 11 39 5 -3 -22 3 -31 20 -29 11 0 17 5 15 9 -3 5 -11 5 -17 2 -9
-5 -9 -4 -1 5 6 6 18 9 27 5 13 -5 15 -10 6 -27 -9 -18 -7 -18 10 3 14 18 16
27 8 33 -8 6 -7 7 3 4 9 -2 14 -14 13 -28 -1 -13 0 -18 3 -11 3 6 10 10 15 7
5 -4 6 1 3 9 -3 9 -1 16 5 16 6 0 11 -7 11 -15 0 -8 5 -15 11 -15 6 0 9 7 6
14 -4 11 -1 13 10 9 10 -4 14 -2 10 4 -8 13 11 12 32 -1 8 -5 17 -3 23 5 8 11
8 10 4 -4 -4 -12 -2 -17 6 -14 7 2 12 11 10 18 -1 8 5 6 16 -6 26 -29 52 -33
27 -3 -11 12 -13 17 -5 11 9 -7 26 -12 38 -13 12 0 32 0 44 -1 11 0 25 6 29
13 5 8 9 9 9 2 0 -14 62 -14 72 1 5 6 8 5 8 -4 0 -8 6 -11 16 -7 8 3 12 2 9
-4 -3 -6 1 -10 10 -10 10 0 13 5 9 12 -4 7 -3 8 4 4 7 -4 12 -2 12 5 0 6 9 1
20 -12 17 -21 19 -21 13 -4 -6 20 -6 20 16 0 12 -11 21 -14 19 -8 -2 6 0 10 4
9 4 0 15 9 23 22 9 12 21 19 27 16 7 -4 8 -2 4 4 -5 9 -18 4 -44 -14 l-37 -26
30 26 c17 15 29 31 28 36 -2 5 8 7 22 4 19 -3 23 0 22 16 -1 11 -4 20 -7 20
-4 0 -7 7 -7 15 0 12 3 12 16 2 12 -10 13 -9 7 1 -4 7 -2 20 6 29 9 13 10 15
0 9 -22 -13 -9 74 14 91 16 12 16 14 2 11 -9 -2 -16 2 -15 7 1 6 8 9 15 9 10
-2 10 1 1 12 -8 10 -8 18 -1 27 6 7 9 25 8 40 -2 15 1 27 5 27 5 0 9 -5 9 -12
0 -6 3 -8 6 -5 4 4 1 13 -6 22 -7 8 -9 15 -5 15 4 0 2 7 -5 15 -11 13 -10 14
2 10 10 -4 17 1 21 14 3 12 1 19 -4 15 -14 -8 -11 14 5 28 11 11 11 15 -3 25
-14 10 -13 13 9 22 18 7 20 10 8 10 -10 1 -18 9 -19 19 0 14 -2 14 -9 -3 -5
-11 -9 -14 -9 -7 -1 8 -11 11 -31 7 -18 -3 -30 -1 -30 5 0 6 5 8 12 4 7 -4 8
-3 4 4 -10 17 -36 3 -29 -16 4 -14 3 -14 -5 -3 -9 12 -13 13 -27 1 -9 -7 -15
-9 -14 -4 4 21 -2 26 -16 14 -8 -7 -15 -9 -15 -4 0 5 -5 2 -10 -6 -8 -13 -11
-13 -22 -1 -8 9 -9 11 -1 7 6 -3 14 -2 18 4 4 6 11 8 16 5 5 -4 9 -1 9 4 0 12
-13 14 -24 4 -12 -12 -48 -14 -62 -2 -17 14 -18 -2 -1 -21 10 -12 9 -12 -4 -2
-9 6 -20 8 -24 4 -5 -4 -5 -1 -1 6 4 6 3 12 -2 12 -6 0 -13 -8 -17 -17 -6 -17
-7 -17 -21 1 -8 12 -14 15 -14 7 0 -10 -7 -9 -27 4 -20 14 -25 14 -21 3 4 -9
0 -15 -8 -15 -8 0 -14 6 -14 14 0 15 -16 17 -25 3 -4 -6 -10 -8 -15 -5 -5 3
-16 -2 -24 -11 -9 -8 -16 -11 -16 -6 0 5 -16 12 -35 14 -27 3 -34 1 -30 -9 2
-8 0 -11 -5 -8 -6 3 -10 13 -10 21 0 16 -16 19 -24 5 -3 -5 -19 -8 -36 -7 -19
1 -31 -3 -33 -13 -3 -11 -5 -10 -6 4 -1 17 -3 18 -11 5 -8 -13 -10 -12 -10 3
0 19 -15 23 -26 5 -4 -6 -3 -8 3 -5 5 3 10 0 10 -7 0 -7 -6 -13 -13 -13 -7 0
-11 4 -8 9 3 4 1 8 -5 8 -5 0 -17 3 -27 7 -13 5 -15 3 -9 -8 5 -8 0 -6 -12 4
-16 14 -23 15 -29 6 -4 -8 -3 -10 4 -5 7 4 12 2 12 -4 0 -7 -6 -10 -14 -7 -7
3 -20 0 -27 -6 -11 -10 -11 -9 -1 5 10 12 10 18 1 24 -7 4 -9 3 -6 -2 3 -6 -2
-15 -12 -21 -14 -9 -18 -8 -18 3 0 7 5 10 10 7 6 -3 7 -1 3 5 -4 7 -14 6 -33
-3 -19 -10 -31 -11 -39 -4 -9 7 -14 5 -17 -8 -4 -16 -5 -16 -6 2 -1 17 -3 18
-11 5 -8 -13 -10 -12 -10 3 0 18 -11 22 -24 10 -4 -4 -28 -9 -53 -10 -25 -1
-51 -7 -57 -13 -14 -10 -26 -4 -26 14 0 6 4 5 9 -3 5 -8 11 -9 15 -3 3 5 0 12
-7 15 -14 5 -39 -6 -38 -17 2 -16 0 -18 -11 -9 -20 16 -90 24 -82 10 4 -7 -2
-4 -13 6 -16 14 -23 15 -29 6 -4 -8 -3 -10 4 -5 7 4 12 2 12 -4 0 -7 -6 -10
-14 -7 -7 3 -20 0 -27 -6 -11 -10 -11 -9 -1 5 10 12 10 18 1 24 -7 4 -9 3 -6
-2 3 -6 -2 -15 -12 -21 -14 -9 -18 -8 -18 3 0 7 5 10 10 7 6 -4 7 -1 2 7 -6
10 -11 9 -22 -5 -12 -17 -13 -17 -13 -2 0 19 -15 23 -25 7 -4 -6 -10 -8 -15
-5 -5 3 -16 -2 -24 -11 -9 -8 -16 -11 -16 -6 0 5 -16 12 -35 14 -27 3 -34 1
-30 -9 2 -8 0 -11 -5 -8 -6 3 -10 13 -10 21 0 16 -16 19 -24 5 -3 -5 -19 -8
-36 -7 -19 1 -31 -3 -33 -13 -3 -11 -5 -10 -6 4 -1 17 -3 18 -11 5 -8 -13 -10
-12 -10 3 0 19 -15 23 -26 5 -4 -6 -3 -8 3 -5 5 3 10 0 10 -8 0 -11 -4 -12
-14 -4 -7 6 -19 9 -28 6 -8 -4 -18 -1 -21 5 -5 8 -10 5 -15 -8 -7 -18 -8 -18
-8 1 -1 17 -3 17 -11 5 -8 -13 -10 -12 -10 3 0 17 -11 22 -24 10 -12 -12 -48
-14 -62 -2 -17 14 -18 -2 -1 -21 10 -12 9 -12 -4 -2 -9 6 -20 8 -24 4 -5 -4
-5 -1 -1 6 4 6 3 12 -2 12 -6 0 -13 -8 -17 -17 -6 -17 -7 -17 -21 1 -8 12 -14
15 -14 7 0 -10 -7 -9 -27 4 -19 13 -25 14 -21 4 4 -10 -3 -14 -22 -13 -14 0
-31 4 -38 7 -6 4 -13 -1 -15 -10 -4 -15 -5 -15 -6 2 -1 17 -3 18 -11 5 -8 -13
-10 -12 -10 3 0 18 -15 23 -24 8 -3 -5 -19 -8 -36 -7 -19 1 -31 -3 -33 -13 -3
-11 -5 -10 -6 4 -1 17 -3 18 -11 5 -8 -13 -10 -12 -10 3 0 17 -11 22 -24 10
-12 -12 -48 -14 -62 -2 -17 14 -18 -2 -1 -21 10 -12 9 -12 -3 -3 -24 16 -59
22 -67 11 -3 -7 -1 -8 5 -4 16 10 15 -9 -1 -22 -10 -8 -19 -5 -38 11 -14 12
-18 18 -9 12 13 -9 13 -8 2 7 -14 18 -47 14 -35 -5 3 -5 1 -7 -5 -3 -5 3 -12
3 -15 -1 -2 -5 -2 -2 -1 5 4 14 -12 17 -20 4 -3 -5 -26 -6 -50 -2 -37 5 -46 4
-49 -9 -4 -12 -5 -12 -6 3 -1 16 -3 17 -17 5 -19 -15 -47 -21 -38 -8 3 5 1 9
-5 9 -5 0 -17 3 -27 7 -13 5 -15 3 -9 -8 5 -8 0 -6 -12 4 -16 14 -23 15 -29 6
-4 -8 -3 -10 4 -5 7 4 12 2 12 -4 0 -7 -6 -10 -14 -7 -7 3 -20 0 -27 -6 -11
-10 -11 -9 -1 5 10 12 10 18 1 24 -7 4 -9 3 -6 -2 3 -6 -2 -15 -12 -21 -14 -9
-18 -8 -18 3 0 7 5 10 10 7 6 -3 7 -1 3 5 -4 7 -14 6 -33 -3 -19 -10 -31 -11
-39 -4 -9 7 -14 5 -17 -8 -4 -16 -5 -16 -6 2 -1 17 -3 18 -11 5 -8 -13 -10
-12 -10 3 0 18 -15 23 -25 8 -3 -5 -21 -8 -40 -6 -19 2 -38 -2 -42 -8 -4 -7
-9 -3 -14 9 -6 15 -8 15 -8 3z m113 -14 c-7 -18 -20 -19 -30 -3 -4 6 -3 8 4 4
6 -3 13 -2 17 4 9 15 15 12 9 -5z m683 1 c0 -15 -21 -16 -34 -1 -4 4 -3 5 4 1
6 -3 14 -2 18 4 8 14 12 13 12 -4z m117 -1 c-7 -18 -20 -19 -30 -3 -4 6 -3 8
4 4 6 -3 13 -2 17 4 9 15 15 12 9 -5z m320 0 c-7 -18 -20 -19 -30 -3 -4 6 -3
8 4 4 6 -3 13 -2 17 4 9 15 15 12 9 -5z m240 0 c-7 -18 -20 -19 -30 -3 -4 6
-3 8 4 4 6 -3 13 -2 17 4 9 15 15 12 9 -5z m160 0 c-7 -18 -20 -19 -30 -3 -4
6 -3 8 4 4 6 -3 13 -2 17 4 9 15 15 12 9 -5z m400 0 c-7 -18 -20 -19 -30 -3
-4 6 -3 8 4 4 6 -3 13 -2 17 4 9 15 15 12 9 -5z m400 0 c-7 -18 -20 -19 -30
-3 -4 6 -3 8 4 4 6 -3 13 -2 17 4 9 15 15 12 9 -5z m160 0 c-7 -18 -20 -19
-30 -3 -4 6 -3 8 4 4 6 -3 13 -2 17 4 9 15 15 12 9 -5z m-1954 -61 c0 -8 -19
-13 -24 -6 -3 5 1 9 9 9 8 0 15 -2 15 -3z m-29 -46 c-10 -11 -11 -9 -5 7 6 16
5 18 -7 8 -7 -7 -17 -13 -23 -13 -5 0 -1 6 10 14 23 17 45 3 25 -16z m-17
-116 c3 -5 -1 -9 -9 -9 -8 0 -12 4 -9 9 3 4 7 8 9 8 2 0 6 -4 9 -8z m-174
-187 c0 -12 -19 -12 -23 0 -4 9 -1 12 9 8 7 -3 14 -7 14 -8z m124 -81 c3 -8 2
-12 -4 -9 -6 3 -10 10 -10 16 0 14 7 11 14 -7z m1531 -123 c3 -6 -4 -15 -15
-21 -19 -10 -20 -10 -8 9 15 24 15 24 23 12z m-2745 -471 c0 -5 -5 -10 -11
-10 -5 0 -7 5 -4 10 3 6 8 10 11 10 2 0 4 -4 4 -10z m-300 -594 c0 -3 -4 -8
-10 -11 -5 -3 -10 -1 -10 4 0 6 5 11 10 11 6 0 10 -2 10 -4z m81 -19 c-10 -9
-11 -8 -5 6 3 10 9 15 12 12 3 -3 0 -11 -7 -18z m120 0 c-10 -9 -11 -8 -5 6 3
10 9 15 12 12 3 -3 0 -11 -7 -18z m2240 0 c-10 -9 -11 -8 -5 6 3 10 9 15 12
12 3 -3 0 -11 -7 -18z m300 6 c13 -16 12 -17 -3 -4 -17 13 -22 21 -14 21 2 0
10 -8 17 -17z"/>
<path d="M3525 4901 c-6 -11 9 -23 19 -14 9 9 7 23 -3 23 -6 0 -12 -4 -16 -9z"/>
<path d="M3655 4900 c3 -5 8 -10 11 -10 2 0 4 5 4 10 0 6 -5 10 -11 10 -5 0
-7 -4 -4 -10z"/>
<path d="M4706 4898 c3 -5 10 -6 15 -3 13 9 11 12 -6 12 -8 0 -12 -4 -9 -9z"/>
<path d="M4980 4906 c0 -2 8 -10 18 -17 15 -13 16 -12 3 4 -13 16 -21 21 -21
13z"/>
<path d="M5666 4898 c3 -5 10 -6 15 -3 13 9 11 12 -6 12 -8 0 -12 -4 -9 -9z"/>
<path d="M6105 4900 c-3 -6 1 -7 9 -4 18 7 21 14 7 14 -6 0 -13 -4 -16 -10z"/>
<path d="M3770 4886 c0 -8 4 -17 9 -20 5 -4 7 3 4 14 -6 23 -13 26 -13 6z"/>
<path d="M1040 4761 c0 -6 4 -13 10 -16 6 -3 7 1 4 9 -7 18 -14 21 -14 7z"/>
<path d="M2976 4748 c3 -5 10 -6 15 -3 13 9 11 12 -6 12 -8 0 -12 -4 -9 -9z"/>
<path d="M3705 4720 c-8 -13 3 -30 18 -30 8 0 7 3 -2 9 -7 5 -10 14 -7 20 4 6
5 11 2 11 -3 0 -8 -4 -11 -10z"/>
<path d="M2957 4713 c-10 -9 -9 -23 1 -23 5 0 9 7 9 15 0 17 -1 18 -10 8z"/>
<path d="M3652 4645 c-9 -20 -9 -23 3 -18 8 3 12 10 8 16 -4 7 0 8 12 3 15 -5
16 -4 5 9 -16 19 -15 19 -28 -10z"/>
<path d="M1015 4620 c-2 -3 9 -6 25 -6 17 0 27 2 25 5 -8 7 -45 9 -50 1z"/>
<path d="M1035 4591 c-3 -5 -2 -12 3 -15 5 -3 9 1 9 9 0 17 -3 19 -12 6z"/>
<path d="M3673 4583 c4 -3 1 -13 -6 -22 -11 -14 -10 -14 6 -2 20 15 22 31 5
31 -6 0 -8 -3 -5 -7z"/>
<path d="M6106 4562 c-3 -5 1 -9 9 -9 8 0 12 4 9 9 -3 4 -7 8 -9 8 -2 0 -6 -4
-9 -8z"/>
<path d="M1070 4546 c0 -2 7 -6 15 -10 8 -3 15 -1 15 4 0 6 -7 10 -15 10 -8 0
-15 -2 -15 -4z"/>
<path d="M1045 4520 c10 -11 20 -20 23 -20 3 0 -3 9 -13 20 -10 11 -20 20 -23
20 -3 0 3 -9 13 -20z"/>
<path d="M3615 4520 c2 -27 10 -33 12 -10 1 11 -2 22 -6 24 -4 3 -7 -4 -6 -14z"/>
<path d="M3655 4529 c-4 -6 -5 -12 -2 -15 2 -3 7 2 10 11 7 17 1 20 -8 4z"/>
<path d="M1079 4413 c-13 -16 -12 -17 4 -4 9 7 17 15 17 17 0 8 -8 3 -21 -13z"/>
<path d="M1050 4380 c0 -5 5 -10 11 -10 5 0 7 5 4 10 -3 6 -8 10 -11 10 -2 0
-4 -4 -4 -10z"/>
<path d="M1098 4368 c5 -5 16 -8 23 -6 8 3 3 7 -10 11 -17 4 -21 3 -13 -5z"/>
<path d="M3485 4361 c-3 -5 0 -13 6 -17 7 -4 9 -3 5 4 -3 5 0 13 6 15 9 4 10
6 1 6 -6 1 -14 -3 -18 -8z"/>
<path d="M2760 4349 c0 -5 5 -7 10 -4 6 3 10 8 10 11 0 2 -4 4 -10 4 -5 0 -10
-5 -10 -11z"/>
<path d="M3648 4353 c7 -3 16 -2 19 1 4 3 -2 6 -13 5 -11 0 -14 -3 -6 -6z"/>
<path d="M5371 4326 c-10 -11 -9 -14 1 -12 14 2 23 15 15 22 -2 2 -10 -2 -16
-10z"/>
<path d="M5572 4327 c-9 -10 -6 -13 13 -13 19 0 22 3 13 13 -6 7 -12 13 -13
13 -1 0 -7 -6 -13 -13z"/>
<path d="M1087 4317 c3 -4 8 -6 11 -3 3 4 16 -4 29 -16 13 -12 23 -16 23 -9 0
6 -7 14 -15 17 -8 4 -13 9 -11 13 3 4 -6 7 -19 7 -13 0 -21 -4 -18 -9z"/>
<path d="M2710 4316 c7 -7 13 -7 20 0 6 6 3 10 -10 10 -13 0 -16 -4 -10 -10z"/>
<path d="M3820 4320 c0 -5 5 -10 11 -10 5 0 7 5 4 10 -3 6 -8 10 -11 10 -2 0
-4 -4 -4 -10z"/>
<path d="M3860 4320 c-9 -6 -10 -10 -3 -10 6 0 15 5 18 10 8 12 4 12 -15 0z"/>
<path d="M4427 4311 c-4 -17 -3 -21 5 -13 5 5 8 16 6 23 -3 8 -7 3 -11 -10z"/>
<path d="M5300 4320 c-9 -6 -10 -10 -3 -10 6 0 15 5 18 10 8 12 4 12 -15 0z"/>
<path d="M5330 4320 c0 -5 5 -10 11 -10 5 0 7 5 4 10 -3 6 -8 10 -11 10 -2 0
-4 -4 -4 -10z"/>
<path d="M5717 4315 c-4 -8 -3 -16 1 -19 4 -3 9 4 9 15 2 23 -3 25 -10 4z"/>
<path d="M5780 4320 c-9 -6 -10 -10 -3 -10 6 0 15 5 18 10 8 12 4 12 -15 0z"/>
<path d="M5850 4318 c0 -4 4 -8 9 -8 6 0 12 4 15 8 3 5 -1 9 -9 9 -8 0 -15 -4
-15 -9z"/>
<path d="M3760 4300 c-9 -6 -10 -10 -3 -10 6 0 15 5 18 10 8 12 4 12 -15 0z"/>
<path d="M5626 4298 c3 -4 11 -5 19 -1 21 7 19 12 -4 10 -11 0 -18 -5 -15 -9z"/>
<path d="M5890 4299 c0 -5 5 -7 10 -4 6 3 10 8 10 11 0 2 -4 4 -10 4 -5 0 -10
-5 -10 -11z"/>
<path d="M3676 4287 c3 -10 9 -15 12 -12 3 3 0 11 -7 18 -10 9 -11 8 -5 -6z"/>
<path d="M3916 4287 c3 -10 9 -15 12 -12 3 3 0 11 -7 18 -10 9 -11 8 -5 -6z"/>
<path d="M5356 4287 c3 -10 9 -15 12 -12 3 3 0 11 -7 18 -10 9 -11 8 -5 -6z"/>
<path d="M1086 4282 c-2 -4 4 -8 14 -8 10 0 16 4 14 8 -3 4 -9 8 -14 8 -5 0
-11 -4 -14 -8z"/>
<path d="M2696 4282 c-3 -5 1 -9 9 -9 8 0 12 4 9 9 -3 4 -7 8 -9 8 -2 0 -6 -4
-9 -8z"/>
<path d="M5910 4276 c0 -2 8 -10 18 -17 15 -13 16 -12 3 4 -13 16 -21 21 -21
13z"/>
<path d="M5270 4259 c0 -5 5 -7 10 -4 6 3 10 8 10 11 0 2 -4 4 -10 4 -5 0 -10
-5 -10 -11z"/>
<path d="M1122 4240 c7 -11 17 -20 22 -20 5 0 1 9 -9 20 -10 11 -20 20 -22 20
-2 0 2 -9 9 -20z"/>
<path d="M4149 4243 c-13 -16 -12 -17 4 -4 16 13 21 21 13 21 -2 0 -10 -8 -17
-17z"/>
<path d="M1065 4240 c-3 -6 1 -7 9 -4 18 7 21 14 7 14 -6 0 -13 -4 -16 -10z"/>
<path d="M3395 4180 c3 -5 8 -10 11 -10 2 0 4 5 4 10 0 6 -5 10 -11 10 -5 0
-7 -4 -4 -10z"/>
<path d="M4414 4178 c-4 -7 -3 -10 1 -5 5 4 18 -1 29 -10 21 -18 21 -18 2 5
-22 26 -23 26 -32 10z"/>
<path d="M1135 4109 c-4 -6 -5 -12 -2 -15 2 -3 7 2 10 11 7 17 1 20 -8 4z"/>
<path d="M3316 4062 c-3 -5 1 -9 9 -9 8 0 12 4 9 9 -3 4 -7 8 -9 8 -2 0 -6 -4
-9 -8z"/>
<path d="M5155 4011 c-3 -5 -2 -12 3 -15 5 -3 9 1 9 9 0 17 -3 19 -12 6z"/>
<path d="M4425 3990 c6 -10 4 -12 -11 -6 -15 6 -17 5 -6 -5 9 -9 15 -10 23 -2
8 8 7 13 -2 18 -8 6 -10 4 -4 -5z"/>
<path d="M1135 3980 c3 -5 8 -10 11 -10 2 0 4 5 4 10 0 6 -5 10 -11 10 -5 0
-7 -4 -4 -10z"/>
<path d="M5143 3975 c0 -8 4 -12 9 -9 5 3 6 10 3 15 -9 13 -12 11 -12 -6z"/>
<path d="M1066 3958 c3 -5 10 -6 15 -3 13 9 11 12 -6 12 -8 0 -12 -4 -9 -9z"/>
<path d="M4395 3940 c-3 -5 -1 -10 4 -10 6 0 11 5 11 10 0 6 -2 10 -4 10 -3 0
-8 -4 -11 -10z"/>
<path d="M2466 3898 c3 -5 10 -6 15 -3 13 9 11 12 -6 12 -8 0 -12 -4 -9 -9z"/>
<path d="M1900 3860 c0 -6 7 -10 15 -10 8 0 15 2 15 4 0 2 -7 6 -15 10 -8 3
-15 1 -15 -4z"/>
<path d="M4380 3810 c-9 -6 -10 -10 -3 -10 6 0 15 5 18 10 8 12 4 12 -15 0z"/>
<path d="M1175 3780 c3 -5 8 -10 11 -10 2 0 4 5 4 10 0 6 -5 10 -11 10 -5 0
-7 -4 -4 -10z"/>
<path d="M1222 3731 c-11 -7 -11 -9 0 -14 9 -3 15 1 15 9 0 8 -1 14 -1 14 -1
0 -7 -4 -14 -9z"/>
<path d="M4350 3725 c0 -2 6 -8 13 -14 10 -8 14 -7 14 2 0 8 -6 14 -14 14 -7
0 -13 -1 -13 -2z"/>
<path d="M2393 3705 c0 -8 4 -12 9 -9 5 3 6 10 3 15 -9 13 -12 11 -12 -6z"/>
<path d="M1200 3700 c-12 -7 -10 -9 7 -7 12 0 19 5 17 9 -6 10 -6 10 -24 -2z"/>
<path d="M1219 3658 c-6 -20 -6 -39 0 -42 4 -3 7 6 7 20 0 20 -4 32 -7 22z"/>
<path d="M5085 3651 c-3 -5 -2 -12 3 -15 5 -3 9 1 9 9 0 17 -3 19 -12 6z"/>
<path d="M2336 3618 c3 -5 10 -6 15 -3 13 9 11 12 -6 12 -8 0 -12 -4 -9 -9z"/>
<path d="M4333 3583 c0 -7 4 -13 8 -13 4 0 9 6 12 13 3 8 0 14 -7 14 -7 0 -13
-6 -13 -14z"/>
<path d="M3059 3553 c-13 -16 -12 -17 4 -4 16 13 21 21 13 21 -2 0 -10 -8 -17
-17z"/>
<path d="M1963 3495 c0 -8 4 -12 9 -9 4 3 8 9 8 15 0 5 -4 9 -8 9 -5 0 -9 -7
-9 -15z"/>
<path d="M4295 3460 c-3 -5 -1 -10 4 -10 6 0 11 5 11 10 0 6 -2 10 -4 10 -3 0
-8 -4 -11 -10z"/>
<path d="M1276 3413 c-6 -14 -5 -15 5 -6 7 7 10 15 7 18 -3 3 -9 -2 -12 -12z"/>
<path d="M1997 3403 c-4 -3 -7 -11 -7 -17 0 -6 5 -5 12 2 6 6 9 14 7 17 -3 3
-9 2 -12 -2z"/>
<path d="M2950 3400 c0 -5 5 -10 11 -10 5 0 7 5 4 10 -3 6 -8 10 -11 10 -2 0
-4 -4 -4 -10z"/>
<path d="M4260 3405 c0 -2 6 -8 13 -14 10 -8 14 -7 14 2 0 8 -6 14 -14 14 -7
0 -13 -1 -13 -2z"/>
<path d="M1274 3384 c-18 -14 -18 -15 4 -4 12 6 22 13 22 15 0 8 -5 6 -26 -11z"/>
<path d="M5025 3381 c-6 -11 13 -26 22 -17 4 3 1 6 -6 6 -7 0 -9 5 -6 10 3 6
4 10 1 10 -3 0 -7 -4 -11 -9z"/>
<path d="M4279 3368 c-5 -16 -4 -46 2 -42 4 2 7 13 6 24 -1 17 -5 26 -8 18z"/>
<path d="M4215 3329 c-4 -6 -5 -12 -2 -15 2 -3 7 2 10 11 7 17 1 20 -8 4z"/>
<path d="M5015 3300 c3 -5 8 -10 11 -10 2 0 4 5 4 10 0 6 -5 10 -11 10 -5 0
-7 -4 -4 -10z"/>
<path d="M1225 3280 c-3 -6 1 -7 9 -4 18 7 21 14 7 14 -6 0 -13 -4 -16 -10z"/>
<path d="M2871 3267 c-13 -21 -12 -21 5 -5 10 10 16 20 13 22 -3 3 -11 -5 -18
-17z"/>
<path d="M4277 3275 c-4 -8 -3 -16 1 -19 4 -3 9 4 9 15 2 23 -3 25 -10 4z"/>
<path d="M4260 3246 c0 -2 8 -10 18 -17 15 -13 16 -12 3 4 -13 16 -21 21 -21
13z"/>
<path d="M1294 3201 c0 -16 4 -27 8 -25 4 2 5 14 3 26 -7 32 -13 32 -11 -1z"/>
<path d="M1325 3189 c-4 -6 -5 -12 -2 -15 2 -3 7 2 10 11 7 17 1 20 -8 4z"/>
<path d="M1483 3175 c-3 -9 -3 -18 -1 -21 3 -3 8 4 11 16 6 23 -1 27 -10 5z"/>
<path d="M1754 3175 c-4 -8 -11 -12 -17 -8 -6 4 -7 1 -2 -7 6 -10 11 -10 20 3
7 9 16 13 20 9 5 -4 5 -1 1 6 -9 16 -15 15 -22 -3z"/>
<path d="M4355 3179 c-4 -6 -4 -13 -1 -16 3 -4 6 -1 6 6 0 7 5 9 12 5 7 -4 8
-3 4 4 -9 15 -13 15 -21 1z"/>
<path d="M4445 3180 c-3 -5 1 -20 9 -31 15 -22 15 -22 13 -1 0 11 -5 18 -11
15 -5 -4 -7 1 -3 10 7 19 2 23 -8 7z"/>
<path d="M4685 3179 c-4 -6 -5 -12 -2 -15 2 -3 7 2 10 11 7 17 1 20 -8 4z"/>
<path d="M1549 3163 c-13 -16 -12 -17 4 -4 16 13 21 21 13 21 -2 0 -10 -8 -17
-17z"/>
<path d="M1586 3168 c3 -5 10 -6 15 -3 13 9 11 12 -6 12 -8 0 -12 -4 -9 -9z"/>
<path d="M2303 3163 c0 -9 4 -10 14 -2 7 6 13 12 13 14 0 1 -6 2 -13 2 -8 0
-14 -6 -14 -14z"/>
<path d="M4547 3163 c3 -7 6 -13 8 -13 2 0 5 6 8 13 3 8 -1 14 -8 14 -7 0 -11
-6 -8 -14z"/>
<path d="M4830 3171 c0 -8 -7 -11 -17 -6 -15 5 -16 4 -5 -6 9 -10 15 -10 24
-1 6 6 9 15 5 19 -4 3 -7 1 -7 -6z"/>
<path d="M1416 3162 c-3 -5 1 -9 9 -9 8 0 12 4 9 9 -3 4 -7 8 -9 8 -2 0 -6 -4
-9 -8z"/>
<path d="M1666 3158 c3 -5 10 -6 15 -3 13 9 11 12 -6 12 -8 0 -12 -4 -9 -9z"/>
<path d="M4329 3157 c6 -8 7 -18 3 -22 -4 -5 -1 -5 6 -1 10 6 10 11 1 22 -6 8
-14 14 -16 14 -3 0 0 -6 6 -13z"/>
<path d="M4697 3155 c-4 -8 -3 -16 1 -19 4 -3 9 4 9 15 2 23 -3 25 -10 4z"/>
<path d="M2210 3139 c0 -5 5 -7 10 -4 6 3 10 8 10 11 0 2 -4 4 -10 4 -5 0 -10
-5 -10 -11z"/>
<path d="M2693 3135 c0 -8 4 -12 9 -9 5 3 6 10 3 15 -9 13 -12 11 -12 -6z"/>
<path d="M4370 3139 c0 -5 5 -7 10 -4 6 3 10 8 10 11 0 2 -4 4 -10 4 -5 0 -10
-5 -10 -11z"/>
<path d="M4415 3140 c3 -5 8 -10 11 -10 2 0 4 5 4 10 0 6 -5 10 -11 10 -5 0
-7 -4 -4 -10z"/>
<path d="M4490 3139 c0 -5 5 -7 10 -4 6 3 10 8 10 11 0 2 -4 4 -10 4 -5 0 -10
-5 -10 -11z"/>
<path d="M1435 3121 c-3 -5 -2 -12 3 -15 5 -3 9 1 9 9 0 17 -3 19 -12 6z"/>
<path d="M4555 3121 c-3 -5 -2 -12 3 -15 5 -3 9 1 9 9 0 17 -3 19 -12 6z"/>
<path d="M1515 3019 c-4 -6 -14 -8 -22 -5 -8 3 -11 1 -8 -4 8 -13 -1 -13 -26
1 -19 10 -19 9 -10 -10 10 -17 9 -20 -4 -15 -8 4 -15 11 -15 17 0 6 -3 8 -6 5
-3 -4 0 -17 7 -30 11 -21 11 -22 -4 -9 -14 11 -17 11 -18 0 -1 -8 -1 -18 0
-23 1 -5 -5 -6 -13 -3 -8 3 -16 -2 -19 -14 -5 -20 9 -27 15 -7 3 7 7 5 11 -6
4 -9 3 -15 -2 -12 -4 3 -8 -8 -9 -25 0 -19 3 -27 10 -23 7 4 8 2 4 -5 -4 -6
-13 -8 -19 -5 -7 4 -9 4 -5 -1 4 -4 0 -14 -10 -22 -15 -13 -15 -13 5 -4 28 14
30 14 36 -3 4 -11 1 -13 -11 -9 -15 6 -14 3 2 -15 19 -22 19 -22 0 -22 -15 0
-16 -2 -4 -9 8 -6 18 -7 24 -4 5 4 6 1 0 -8 -4 -8 -8 -23 -9 -34 0 -11 -6 -19
-13 -17 -10 2 -10 -2 0 -17 7 -11 16 -17 20 -15 7 5 13 -36 9 -60 -1 -5 5 -6
14 -2 10 3 13 2 10 -4 -10 -16 -14 -81 -5 -75 5 3 12 0 16 -6 4 -8 3 -9 -4 -5
-8 4 -12 0 -12 -11 0 -15 -2 -16 -10 -3 -5 8 -10 10 -10 4 0 -6 8 -18 17 -25
11 -10 14 -10 9 -1 -4 7 -2 12 4 12 7 0 10 -6 7 -14 -3 -7 0 -19 6 -26 9 -10
6 -9 -13 0 -22 12 -23 11 -13 -2 7 -8 9 -19 5 -23 -4 -5 1 -5 11 -2 11 4 16 3
12 -3 -3 -6 -2 -10 4 -10 5 0 9 -9 8 -19 0 -11 -4 -18 -8 -15 -4 2 -10 -3 -13
-11 -3 -9 1 -18 8 -21 8 -3 17 -12 20 -20 3 -8 2 -13 -2 -10 -5 3 -9 -1 -9 -8
0 -8 7 -12 15 -9 12 5 12 2 3 -15 -18 -33 -12 -39 10 -12 13 16 19 19 15 8 -6
-21 10 -33 27 -21 7 5 26 8 42 8 17 0 36 7 43 15 11 13 12 12 10 -5 -2 -15 3
-20 22 -20 20 0 25 5 24 23 -1 17 2 20 11 12 7 -6 20 -8 29 -4 9 3 16 1 16 -5
0 -6 -3 -10 -7 -10 -29 5 -40 -17 -19 -38 4 -4 7 -3 6 2 -1 6 -2 17 -1 25 1
13 2 13 11 0 7 -11 10 -12 10 -2 0 8 8 12 18 10 9 -2 23 3 30 12 11 13 12 12
10 -5 -2 -15 3 -20 22 -20 20 0 25 5 24 23 -1 17 2 20 11 12 7 -6 20 -7 30 -4
14 6 16 3 10 -17 -3 -14 -3 -19 2 -12 11 15 49 9 45 -7 -1 -6 2 -9 8 -5 8 5 8
11 0 20 -9 11 -7 14 8 12 13 -1 18 -6 15 -17 -4 -13 -4 -13 6 0 7 9 14 11 19
5 8 -11 54 -16 47 -6 -2 4 0 13 6 21 7 13 9 13 10 0 1 -8 1 -17 1 -20 -1 -15
39 -6 48 11 11 20 30 26 30 8 0 -5 -6 -7 -12 -3 -7 4 -10 4 -6 -1 4 -4 34 -9
67 -9 44 -1 58 1 54 11 -3 7 0 13 6 13 6 0 11 -4 11 -8 0 -5 7 -9 15 -9 11 0
12 4 4 13 -8 10 -6 12 10 9 15 -3 18 0 14 13 -6 15 -5 16 12 2 17 -14 18 -14
6 8 -6 12 -8 22 -4 21 23 -4 33 3 33 22 0 11 5 17 10 14 6 -4 10 7 10 27 0 24
3 29 9 18 6 -8 7 -18 4 -24 -3 -5 -1 -6 5 -2 6 4 9 13 6 20 -3 8 0 17 6 21 8
5 8 11 -1 21 -9 12 -9 13 2 9 10 -4 15 2 16 16 3 30 10 34 30 18 14 -12 13 -9
-3 16 -12 19 -14 26 -5 20 11 -6 13 -4 7 10 -6 16 -4 16 11 4 10 -7 15 -9 11
-5 -4 5 -2 16 5 24 8 11 8 14 0 9 -13 -8 -12 18 2 30 4 4 5 2 1 -4 -4 -7 -2
-13 3 -13 6 0 11 5 11 11 0 5 6 7 13 3 8 -5 8 -2 -2 9 -11 14 -11 17 0 18 8 1
18 1 22 0 5 -1 6 3 2 9 -3 6 -10 8 -14 6 -4 -3 -8 1 -8 9 0 8 4 12 9 9 4 -3 9
0 9 5 1 6 2 16 3 22 1 15 37 40 47 33 5 -3 6 3 2 12 -4 11 -8 13 -11 6 -2 -7
-8 -12 -14 -12 -6 0 -5 6 2 15 7 9 22 13 34 10 12 -3 15 -2 9 1 -7 3 -13 10
-13 15 0 6 6 7 13 3 9 -6 9 -4 -1 8 -9 12 -10 18 -2 23 6 4 9 14 6 22 -3 8 -1
11 5 8 5 -4 21 5 34 19 l24 26 -27 -5 c-26 -5 -26 -5 -4 5 14 6 20 14 16 22
-5 7 -2 9 8 5 11 -4 15 0 13 11 -1 9 7 26 18 36 18 17 18 20 4 31 -13 9 -14
15 -4 26 7 7 1 5 -12 -6 -22 -18 -24 -18 -18 -2 4 9 2 17 -2 17 -5 0 -11 -5
-13 -12 -2 -6 -12 -12 -21 -14 -9 -1 -15 2 -11 7 3 5 10 6 16 3 7 -4 8 -2 4 4
-5 8 -13 9 -24 3 -11 -6 -25 -5 -37 2 -17 9 -18 8 -8 -4 10 -12 8 -15 -7 -15
-10 0 -17 3 -14 7 2 4 -3 10 -12 13 -8 3 -12 2 -9 -4 8 -12 7 -12 -32 -1 -27
8 -31 7 -25 -7 4 -14 3 -15 -9 -6 -8 6 -24 14 -37 17 -20 5 -21 3 -10 -10 12
-15 11 -15 -9 -4 -16 8 -23 8 -23 1 0 -6 -7 -4 -16 5 -15 15 -18 15 -41 -1
-14 -9 -23 -12 -19 -6 10 17 -23 22 -39 6 -8 -9 -15 -12 -15 -7 0 4 -9 14 -21
21 -12 8 -18 9 -15 4 3 -6 -2 -13 -12 -17 -23 -11 -92 -13 -98 -3 -2 4 5 5 17
3 12 -2 19 -2 16 1 -3 3 -7 4 -10 2 -2 -1 -12 4 -22 12 -11 8 -16 10 -13 5 4
-6 -2 -17 -14 -24 -11 -7 -17 -8 -14 -3 10 17 -23 22 -39 6 -10 -10 -15 -11
-15 -3 0 8 -5 8 -17 -2 -11 -10 -14 -10 -9 -1 5 9 -3 11 -34 9 -23 -2 -43 1
-46 5 -3 5 -13 1 -21 -9 -8 -10 -12 -12 -8 -5 3 6 1 12 -4 12 -6 0 -11 -6 -11
-12 0 -7 -5 -5 -11 5 -10 17 -12 17 -23 1 -10 -13 -15 -14 -21 -4 -6 9 -4 11
5 5 8 -5 11 -4 6 3 -4 6 -13 9 -21 6 -8 -4 -12 -10 -9 -15 8 -14 -6 -10 -22 6
-16 15 -48 10 -38 -7 4 -6 -5 -3 -19 6 -23 16 -26 16 -41 1 -9 -9 -16 -13 -16
-8 0 4 -9 14 -21 21 -12 8 -19 10 -16 5 3 -5 -3 -14 -13 -21 -14 -9 -21 -9
-26 0 -4 7 -3 8 4 4 8 -5 10 -1 5 9 -4 12 -8 13 -13 5 -5 -8 -13 -9 -21 -4
-11 6 -12 5 -2 -7 10 -13 10 -16 -2 -16 -14 0 -19 10 -16 30 2 11 -7 9 -14 -4z
m115 -19 c0 -5 -5 -10 -11 -10 -5 0 -7 5 -4 10 3 6 8 10 11 10 2 0 4 -4 4 -10z
m420 0 c0 -5 -5 -10 -11 -10 -5 0 -7 5 -4 10 3 6 8 10 11 10 2 0 4 -4 4 -10z
m-613 -316 c-3 -3 -12 -4 -19 -1 -8 3 -5 6 6 6 11 1 17 -2 13 -5z m153 -405
c0 -5 -4 -9 -8 -9 -5 0 -9 7 -9 15 0 8 4 12 9 9 4 -3 8 -9 8 -15z m451 3 c5 7
9 8 9 2 0 -6 -3 -14 -6 -17 -9 -8 -44 11 -44 24 0 6 7 3 16 -6 14 -13 19 -14
25 -3z m69 -8 c0 -17 -16 -19 -26 -2 -5 7 -3 8 6 3 10 -6 12 -4 7 9 -4 10 -3
15 3 11 6 -3 10 -13 10 -21z m-555 -3 c-3 -6 -11 -11 -17 -11 -6 0 -6 6 2 15
14 17 26 13 15 -4z m123 6 c8 -10 6 -13 -8 -14 -13 -1 -17 3 -13 13 6 17 8 17
21 1z m160 0 c8 -10 6 -13 -8 -14 -13 -1 -17 3 -13 13 6 17 8 17 21 1z m376 1
c-3 -4 -9 -8 -15 -8 -5 0 -9 4 -9 8 0 5 7 9 15 9 8 0 12 -4 9 -9z"/>
<path d="M2147 3020 c18 -20 43 -22 35 -2 -4 11 -7 12 -10 4 -3 -10 -7 -10
-20 0 -14 10 -15 10 -5 -2z"/>
<path d="M4318 3005 c-11 -15 -25 -21 -42 -20 -18 2 -23 -1 -19 -11 3 -8 0
-14 -7 -14 -10 0 -10 -3 0 -15 11 -13 10 -14 -3 -10 -8 4 -18 1 -22 -4 -3 -6
-12 -8 -18 -4 -7 4 -6 0 2 -10 14 -18 26 -23 16 -8 -3 5 -1 12 4 15 7 5 8 -22
1 -31 -2 -2 -3 -6 -5 -10 -1 -5 -5 -16 -9 -26 -5 -10 -3 -24 5 -35 7 -9 0 -6
-16 8 -16 14 -23 17 -16 8 7 -10 10 -18 5 -18 -5 0 -2 -5 6 -10 8 -5 10 -10 5
-10 -15 0 -17 -50 -3 -68 10 -13 10 -14 1 -8 -8 4 -13 1 -13 -8 0 -9 -5 -16
-11 -16 -5 0 -7 5 -3 12 5 7 3 8 -7 2 -8 -5 -17 -9 -21 -9 -3 0 -9 -3 -13 -6
-3 -4 2 -6 12 -6 34 0 43 -3 43 -14 0 -5 -4 -7 -10 -4 -13 8 -13 -11 0 -36 8
-14 8 -19 -1 -17 -6 2 -14 -3 -17 -11 -3 -9 0 -11 8 -6 8 5 11 4 6 -3 -4 -6
-13 -9 -20 -6 -8 3 -17 1 -21 -5 -3 -6 0 -9 8 -5 8 3 18 1 22 -5 3 -6 -1 -11
-9 -11 -9 0 -16 -3 -17 -7 0 -5 -3 -19 -5 -32 -2 -14 -2 -22 2 -19 3 3 7 13 8
22 1 9 5 16 9 16 4 0 10 0 13 0 4 0 1 -7 -6 -15 -6 -8 -8 -20 -4 -26 4 -7 3
-9 -4 -5 -6 3 -13 2 -17 -4 -3 -5 -1 -10 5 -10 7 0 5 -7 -4 -16 -20 -20 -21
-30 -1 -14 8 7 15 9 15 4 -1 -14 -26 -44 -33 -38 -3 3 -4 -2 -3 -11 1 -9 9
-21 17 -27 11 -8 11 -9 -3 -4 -20 6 -25 -10 -5 -17 9 -3 9 -8 -2 -18 -12 -12
-13 -12 -6 1 5 8 5 12 0 8 -4 -4 -14 -3 -21 3 -8 7 -14 6 -20 -2 -4 -7 -3 -9
4 -5 14 8 27 -12 27 -44 0 -20 5 -25 23 -24 14 1 22 -4 22 -15 1 -13 3 -13 17
4 13 16 15 17 10 3 -4 -10 -3 -17 1 -17 20 3 23 -3 11 -18 -13 -16 -12 -17 4
-4 12 10 15 17 7 25 -5 5 -10 13 -10 17 0 9 27 5 37 -6 4 -4 2 -5 -4 -1 -9 5
-11 2 -7 -8 5 -12 9 -13 19 -3 7 6 10 19 7 27 -4 11 -1 10 13 -3 14 -15 20
-16 27 -5 8 10 9 10 5 -2 -2 -8 -11 -14 -21 -12 -9 2 -16 -1 -16 -6 0 -4 11
-8 24 -8 14 0 23 3 21 6 -2 3 0 12 6 20 5 9 9 10 9 4 0 -17 28 -25 36 -12 4 6
3 8 -3 5 -5 -3 -10 0 -10 8 0 11 4 12 14 4 7 -6 10 -15 7 -20 -3 -5 0 -10 5
-10 21 -3 26 -4 41 -14 13 -8 13 -7 0 10 -14 17 -13 18 12 13 15 -3 25 -1 22
4 -5 8 56 1 65 -7 2 -3 10 3 18 13 13 16 13 16 11 -3 -3 -22 27 -29 50 -12 6
5 12 7 12 4 0 -3 16 1 36 9 28 12 39 13 44 4 6 -9 9 -9 13 1 4 10 6 9 6 -3 1
-10 6 -18 11 -18 6 0 9 3 9 8 -3 20 2 25 12 12 8 -11 12 -12 16 -2 2 6 9 12
14 12 6 0 7 -6 3 -12 -4 -7 5 0 19 15 15 15 32 25 38 21 7 -4 7 2 -1 17 -7 13
-9 21 -5 17 16 -15 34 12 25 37 -6 15 -6 27 0 30 5 3 7 14 5 25 -2 12 1 17 10
14 7 -3 16 0 21 7 4 7 3 10 -3 6 -6 -4 -14 0 -17 9 -4 11 -2 15 8 11 10 -4 13
-1 9 9 -3 7 -9 14 -14 14 -6 0 -4 6 3 14 7 8 17 11 22 8 5 -3 5 1 0 9 -10 17
-6 49 9 68 10 12 9 13 -6 8 -13 -5 -16 -3 -10 6 4 6 8 15 8 19 0 3 4 10 9 15
5 4 6 3 2 -4 -3 -6 -2 -14 3 -17 5 -4 8 2 7 11 -2 10 2 22 8 26 6 5 0 6 -14 2
-21 -5 -23 -4 -10 7 16 14 22 31 22 66 0 19 3 20 16 10 11 -9 10 -4 -4 17 -15
23 -16 28 -3 23 11 -4 15 1 15 19 0 23 -1 23 -13 7 -7 -10 -13 -13 -13 -7 0 7
5 15 11 18 6 4 8 13 5 21 -3 8 1 14 11 14 13 0 14 2 2 17 -8 9 -9 14 -3 10 16
-10 25 18 11 33 -9 10 -9 11 2 5 11 -6 13 -4 8 8 -4 10 1 21 11 27 14 9 12 10
-8 4 -20 -5 -23 -4 -12 7 6 7 12 18 12 24 0 5 -5 3 -10 -5 -9 -13 -10 -13 -10
0 0 13 -1 13 -10 0 -5 -8 -10 -10 -10 -4 0 7 -7 15 -16 18 -13 5 -14 3 -6 -7
8 -10 6 -13 -8 -13 -10 0 -17 3 -14 7 2 4 -3 10 -12 13 -8 3 -12 2 -9 -4 8
-13 -1 -13 -28 2 -21 11 -21 10 -7 -8 15 -18 14 -18 -12 -2 -18 12 -28 14 -30
6 -2 -6 -12 -12 -21 -14 -9 -1 -15 2 -11 7 3 5 10 6 16 3 7 -4 8 -2 4 4 -7 11
-31 7 -53 -10 -7 -6 -14 -4 -19 3 -5 8 -3 9 6 4 8 -5 11 -4 6 3 -4 6 -13 9
-21 6 -8 -4 -12 -10 -9 -15 3 -5 0 -9 -5 -9 -6 0 -11 3 -11 8 0 4 -9 13 -21
20 -12 8 -18 9 -14 3 3 -6 1 -11 -5 -11 -6 0 -8 -5 -4 -12 5 -9 3 -9 -9 1 -9
7 -14 18 -10 25 4 7 1 7 -8 -1 -12 -10 -18 -10 -28 0 -7 6 -12 8 -11 2 2 -5 2
-17 1 -25 -1 -13 -2 -13 -11 0 -12 19 -70 21 -62 2 4 -12 2 -12 -17 0 -18 11
-23 11 -31 -2 -8 -12 -10 -12 -10 4 0 20 0 20 -16 0 -8 -10 -12 -13 -8 -5 5
11 2 13 -14 9 -13 -4 -25 -1 -30 7 -5 10 -11 7 -24 -10z m197 -4 c-9 -8 -36
-10 -30 -2 2 4 11 8 20 8 8 0 13 -3 10 -6z m88 -716 c-3 -9 -8 -14 -10 -11 -3
3 -2 9 2 15 9 16 15 13 8 -4z m-213 -4 c0 -6 -4 -13 -10 -16 -5 -3 -10 1 -10
9 0 9 5 16 10 16 6 0 10 -4 10 -9z m183 -1 c3 6 5 6 3 -1 -1 -7 -12 -14 -24
-15 -16 -3 -20 0 -15 11 4 11 9 13 18 5 9 -8 15 -8 18 0z"/>
<path d="M4293 3005 c0 -8 4 -12 9 -9 5 3 6 10 3 15 -9 13 -12 11 -12 -6z"/>
<path d="M4195 2890 c-3 -6 1 -7 9 -4 18 7 21 14 7 14 -6 0 -13 -4 -16 -10z"/>
<path d="M1331 2833 c7 -12 15 -20 18 -17 3 2 -3 12 -13 22 -17 16 -18 16 -5
-5z"/>
<path d="M2611 2807 c-8 -10 -7 -14 2 -14 8 0 14 6 14 14 0 7 -1 13 -2 13 -2
0 -8 -6 -14 -13z"/>
<path d="M1370 2779 c0 -5 5 -7 10 -4 6 3 10 8 10 11 0 2 -4 4 -10 4 -5 0 -10
-5 -10 -11z"/>
<path d="M1390 2735 c5 -7 7 -15 3 -18 -3 -4 -1 -7 5 -7 6 0 10 8 9 18 0 10
-7 19 -14 19 -9 0 -10 -4 -3 -12z"/>
<path d="M1356 2707 c3 -10 9 -15 12 -12 3 3 0 11 -7 18 -10 9 -11 8 -5 -6z"/>
<path d="M2545 2700 c-3 -6 1 -7 9 -4 18 7 21 14 7 14 -6 0 -13 -4 -16 -10z"/>
<path d="M4136 2658 c3 -5 10 -6 15 -3 13 9 11 12 -6 12 -8 0 -12 -4 -9 -9z"/>
<path d="M4155 2640 c-3 -5 -1 -10 4 -10 6 0 11 5 11 10 0 6 -2 10 -4 10 -3 0
-8 -4 -11 -10z"/>
<path d="M1413 2615 c0 -8 4 -12 9 -9 5 3 6 10 3 15 -9 13 -12 11 -12 -6z"/>
<path d="M1420 2579 c0 -5 5 -7 10 -4 6 3 10 8 10 11 0 2 -4 4 -10 4 -5 0 -10
-5 -10 -11z"/>
<path d="M1350 2556 c0 -2 8 -10 18 -17 15 -13 16 -12 3 4 -13 16 -21 21 -21
13z"/>
<path d="M1415 2550 c-3 -6 1 -7 9 -4 18 7 21 14 7 14 -6 0 -13 -4 -16 -10z"/>
<path d="M4089 2443 c-13 -16 -12 -17 4 -4 9 7 17 15 17 17 0 8 -8 3 -21 -13z"/>
<path d="M1460 2400 c0 -5 5 -10 11 -10 5 0 7 5 4 10 -3 6 -8 10 -11 10 -2 0
-4 -4 -4 -10z"/>
<path d="M4835 2400 c3 -5 8 -10 11 -10 2 0 4 5 4 10 0 6 -5 10 -11 10 -5 0
-7 -4 -4 -10z"/>
<path d="M1415 2380 c3 -5 8 -10 11 -10 2 0 4 5 4 10 0 6 -5 10 -11 10 -5 0
-7 -4 -4 -10z"/>
<path d="M1461 2314 c0 -11 3 -14 6 -6 3 7 2 16 -1 19 -3 4 -6 -2 -5 -13z"/>
<path d="M4075 2311 c-3 -5 -2 -12 3 -15 5 -3 9 1 9 9 0 17 -3 19 -12 6z"/>
<path d="M1386 2282 c-3 -5 1 -9 9 -9 8 0 12 4 9 9 -3 4 -7 8 -9 8 -2 0 -6 -4
-9 -8z"/>
<path d="M1450 2280 c0 -5 5 -10 11 -10 5 0 7 5 4 10 -3 6 -8 10 -11 10 -2 0
-4 -4 -4 -10z"/>
<path d="M1868 2265 c4 -5 7 -13 7 -17 0 -3 2 -8 5 -10 3 -1 4 -1 3 1 -1 2 2
11 7 20 6 13 4 17 -10 17 -10 0 -16 -5 -12 -11z"/>
<path d="M4116 2272 c-3 -5 1 -9 9 -9 8 0 12 4 9 9 -3 4 -7 8 -9 8 -2 0 -6 -4
-9 -8z"/>
<path d="M4641 2271 c-8 -5 -9 -11 -3 -15 5 -3 12 1 16 9 6 17 6 18 -13 6z"/>
<path d="M4456 2262 c-3 -5 1 -9 9 -9 8 0 12 4 9 9 -3 4 -7 8 -9 8 -2 0 -6 -4
-9 -8z"/>
<path d="M4613 2247 c0 -8 6 -14 14 -14 9 0 10 4 2 14 -6 7 -12 13 -14 13 -1
0 -2 -6 -2 -13z"/>
<path d="M1560 2235 c-7 -9 -11 -17 -9 -20 3 -2 10 5 17 15 14 24 10 26 -8 5z"/>
<path d="M1590 2240 c0 -5 5 -10 11 -10 5 0 7 5 4 10 -3 6 -8 10 -11 10 -2 0
-4 -4 -4 -10z"/>
<path d="M2150 2240 c0 -5 5 -10 11 -10 5 0 7 5 4 10 -3 6 -8 10 -11 10 -2 0
-4 -4 -4 -10z"/>
<path d="M4110 2240 c0 -5 5 -10 11 -10 5 0 7 5 4 10 -3 6 -8 10 -11 10 -2 0
-4 -4 -4 -10z"/>
<path d="M1655 2231 c-3 -5 -2 -12 3 -15 5 -3 9 1 9 9 0 17 -3 19 -12 6z"/>
<path d="M1815 2231 c-3 -5 -2 -12 3 -15 5 -3 9 1 9 9 0 17 -3 19 -12 6z"/>
<path d="M1976 2218 c3 -4 11 -5 19 -1 21 7 19 12 -4 10 -11 0 -18 -5 -15 -9z"/>
<path d="M2105 2220 c-3 -6 1 -7 9 -4 18 7 21 14 7 14 -6 0 -13 -4 -16 -10z"/>
<path d="M4225 2220 c-3 -6 1 -7 9 -4 18 7 21 14 7 14 -6 0 -13 -4 -16 -10z"/>
<path d="M4370 2220 c0 -5 5 -10 11 -10 5 0 7 5 4 10 -3 6 -8 10 -11 10 -2 0
-4 -4 -4 -10z"/>
</g>
</svg>
