<?xml version="1.0" standalone="no"?>
<!DOCTYPE svg PUBLIC "-//W3C//DTD SVG 20010904//EN"
 "http://www.w3.org/TR/2001/REC-SVG-20010904/DTD/svg10.dtd">
<svg version="1.0" xmlns="http://www.w3.org/2000/svg"
 width="700.000000pt" height="700.000000pt" viewBox="0 0 700.000000 700.000000"
 preserveAspectRatio="xMidYMid meet">
<metadata>
Created by potrace 1.14, written by Peter Selinger 2001-2017
</metadata>
<g transform="translate(0.000000,700.000000) scale(0.100000,-0.100000)"
fill="#000000" stroke="none">
<path d="M1164 4680 c5 -23 4 -23 -8 -7 -12 15 -14 16 -20 2 -4 -12 -10 -14
-25 -5 -29 15 -38 12 -15 -5 18 -14 18 -14 -5 -15 -17 0 -22 -4 -17 -16 4 -12
2 -15 -9 -10 -11 4 -15 -1 -15 -20 0 -16 -4 -23 -12 -18 -7 4 -8 3 -4 -4 4 -6
14 -8 24 -5 14 5 15 3 5 -8 -15 -15 -17 -33 -4 -24 5 3 12 1 15 -4 8 -12 -26
-39 -47 -36 -9 2 -15 -1 -12 -5 7 -11 42 -4 64 12 13 10 14 10 4 -2 -16 -18
-17 -52 -1 -68 7 -7 9 -12 5 -12 -3 0 -2 -12 3 -26 6 -15 6 -23 1 -19 -5 3
-12 1 -16 -5 -3 -5 -1 -10 4 -10 6 0 11 -14 11 -31 0 -21 4 -28 13 -23 6 4 9
4 5 -1 -4 -4 -2 -15 5 -23 9 -13 9 -14 0 -8 -13 7 -17 -4 -14 -31 1 -7 -5 -10
-13 -7 -8 3 -17 1 -20 -4 -3 -5 2 -9 12 -8 9 0 16 -5 14 -12 -1 -6 1 -11 5
-11 19 3 33 -2 33 -12 0 -5 -6 -7 -12 -3 -10 6 -10 4 0 -8 7 -9 11 -22 10 -29
-2 -8 2 -13 7 -12 6 1 10 -9 10 -22 0 -13 -3 -21 -7 -19 -4 2 -9 0 -13 -6 -3
-5 1 -10 9 -10 20 0 29 -17 15 -26 -8 -5 -9 -3 -4 6 5 9 4 11 -4 6 -6 -4 -18
-3 -26 4 -9 8 -15 8 -20 0 -4 -6 -1 -9 7 -8 7 2 12 -2 11 -9 -2 -7 3 -10 11
-7 15 6 16 -31 2 -56 -7 -12 -6 -13 5 -2 7 6 19 12 27 12 11 0 10 -3 -2 -15
-16 -16 -12 -45 6 -45 6 0 6 6 -1 14 -9 11 -9 16 0 22 7 4 9 3 5 -4 -3 -6 -1
-14 5 -18 9 -5 8 -10 -2 -18 -8 -6 -15 -22 -16 -36 l-3 -25 16 28 c8 15 17 27
20 27 2 0 0 -9 -6 -19 -12 -24 -13 -44 -2 -37 5 3 9 -1 9 -9 0 -10 -4 -12 -12
-5 -9 7 -16 5 -26 -7 -11 -15 -11 -16 0 -6 20 17 45 -10 36 -38 -6 -16 -4 -20
6 -13 11 6 11 4 0 -10 -14 -17 -15 -17 -23 3 -4 12 -10 21 -12 21 -3 0 -2 -9
2 -21 5 -11 11 -19 16 -17 10 4 30 -31 33 -62 3 -20 1 -22 -8 -10 -9 13 -10
12 -5 -3 3 -10 6 -21 6 -23 0 -3 4 -3 9 0 5 4 7 -3 4 -14 -3 -12 0 -20 8 -20
7 0 9 -3 6 -7 -4 -3 -17 2 -29 13 -14 12 -18 13 -10 3 6 -9 8 -20 4 -24 -4 -5
-1 -5 6 -1 6 4 12 2 12 -4 0 -6 5 -8 12 -4 6 4 8 3 4 -4 -3 -5 0 -13 6 -15 9
-4 8 -6 -3 -6 -8 -1 -19 2 -25 7 -5 4 -2 0 7 -8 28 -27 41 -58 27 -66 -7 -5
-8 -3 -3 6 5 9 4 11 -3 6 -8 -4 -10 -2 -6 7 3 8 0 18 -7 23 -8 4 -10 3 -5 -5
4 -6 2 -19 -6 -28 -10 -14 -10 -15 0 -9 9 5 15 1 19 -13 3 -12 13 -21 22 -22
13 0 13 -2 -2 -8 -10 -4 -19 -11 -20 -16 -1 -6 -5 -9 -9 -8 -5 2 -8 -2 -8 -7
0 -15 16 -12 30 5 7 8 18 15 24 14 7 0 6 -2 -1 -6 -7 -2 -13 -20 -13 -39 0
-26 -3 -33 -12 -28 -9 5 -9 2 1 -9 16 -20 22 -22 18 -6 -1 6 5 14 13 16 13 4
13 3 0 -6 -8 -6 -11 -11 -6 -11 5 0 2 -8 -5 -17 -8 -9 -9 -14 -4 -11 6 4 17
-3 25 -15 12 -20 12 -21 -3 -8 -10 7 -17 10 -18 5 0 -5 -2 -17 -4 -27 -2 -9 1
-15 6 -11 5 3 6 11 2 17 -3 7 4 3 16 -8 20 -17 21 -21 7 -31 -17 -12 -23 -29
-7 -19 5 3 12 1 16 -5 3 -5 1 -10 -5 -10 -6 0 -8 -5 -4 -11 3 -6 1 -15 -6 -19
-8 -5 -7 -9 5 -13 9 -4 13 -3 10 2 -3 5 0 13 7 17 7 4 10 3 5 -1 -4 -5 1 -17
10 -28 10 -11 12 -17 6 -13 -8 4 -13 2 -13 -4 0 -7 7 -10 15 -6 8 3 18 -1 22
-9 7 -12 11 -10 22 8 12 19 12 20 0 10 -12 -10 -17 -8 -29 10 -12 20 -12 21 3
9 9 -8 21 -11 26 -8 5 4 13 1 17 -5 5 -9 11 -6 22 7 13 18 14 18 7 -6 -6 -20
-5 -23 6 -12 19 18 34 15 18 -5 -12 -15 -12 -16 1 -8 16 10 21 12 46 14 8 0
13 5 9 10 -3 5 0 13 6 17 8 4 9 3 5 -4 -4 -7 -1 -12 8 -12 9 0 16 -5 16 -11 0
-5 5 -7 10 -4 8 5 7 12 -2 23 -12 15 -11 15 11 0 17 -12 30 -14 47 -8 15 6 26
5 30 -2 5 -7 12 -5 22 8 13 18 14 18 7 -6 -6 -21 -5 -23 6 -12 11 10 17 8 32
-10 18 -22 18 -22 8 -1 -16 32 -13 52 4 23 8 -14 14 -19 15 -12 0 6 5 12 11
12 5 0 7 -5 3 -11 -4 -7 -1 -10 7 -7 8 3 13 10 12 15 -1 5 11 7 28 5 16 -2 27
-7 24 -11 -2 -4 2 -8 10 -8 8 0 12 4 9 9 -3 4 6 8 20 8 13 0 32 3 42 7 13 5
15 3 9 -7 -5 -9 -4 -11 3 -6 7 4 12 14 12 22 0 8 5 14 11 14 5 0 7 -6 3 -12
-4 -8 -3 -9 2 -5 5 5 9 16 9 24 0 9 7 18 15 20 13 4 13 3 0 -7 -13 -10 -13
-11 0 -7 8 2 15 8 15 13 0 5 4 15 9 23 6 9 5 12 -2 7 -6 -3 -13 -2 -17 4 -3 5
1 10 9 10 9 0 16 5 16 11 0 5 -4 8 -8 5 -4 -2 -14 -1 -22 5 -12 7 -12 9 4 9
16 0 16 2 -5 18 -17 15 -19 21 -9 27 9 6 11 4 5 -5 -6 -9 -4 -11 5 -5 9 6 11
4 5 -5 -6 -9 -4 -11 4 -5 9 5 6 14 -11 32 -17 18 -18 22 -5 17 10 -3 17 -1 17
5 0 6 -8 11 -17 11 -15 0 -16 2 -3 10 12 8 12 10 1 10 -11 0 -11 3 0 17 12 15
12 16 -4 10 -16 -6 -16 -4 -3 22 13 23 13 28 1 28 -8 0 -11 -5 -8 -10 4 -6 1
-7 -6 -3 -9 6 -8 13 5 27 14 16 15 19 3 14 -10 -4 -16 0 -16 9 0 8 4 13 9 10
4 -3 8 0 8 5 0 6 -6 11 -12 11 -9 0 -8 4 2 10 13 8 12 10 -4 10 -12 0 -16 5
-12 16 3 9 3 21 -1 27 -12 20 -12 81 1 96 6 8 6 12 1 9 -6 -4 -15 5 -22 18 -6
13 -7 22 -2 18 5 -3 9 0 9 5 0 6 -4 11 -8 11 -9 0 -12 17 -12 58 0 14 -4 20
-11 16 -6 -3 -3 6 7 22 18 28 18 29 -1 14 -17 -13 -18 -13 -13 1 4 9 2 21 -4
27 -6 6 -6 12 3 17 8 5 10 4 5 -3 -4 -7 -2 -12 3 -12 16 0 13 11 -6 33 -10 11
-12 17 -5 13 6 -4 12 -2 12 3 0 6 -8 11 -17 12 -11 0 -13 3 -5 6 14 6 16 33 2
33 -5 0 -10 5 -10 11 0 5 4 8 8 5 5 -3 9 2 9 10 0 9 -6 13 -16 9 -11 -3 -10 0
3 10 19 14 12 21 -16 16 -12 -2 -9 6 8 23 13 14 13 16 1 16 -9 0 -15 10 -15
28 0 15 -2 37 -5 50 -4 15 -1 22 9 22 8 0 14 4 14 9 0 6 -9 8 -19 6 -15 -3
-19 1 -16 16 2 10 7 24 11 31 5 8 1 9 -12 5 -14 -5 -12 -2 6 12 24 19 10 25
-17 8 -8 -5 -13 -4 -13 2 0 6 5 11 10 11 6 0 10 15 10 33 0 24 -3 28 -10 17
-5 -8 -10 -10 -10 -5 0 6 5 16 12 23 9 9 9 12 -2 12 -11 0 -11 3 -2 12 7 7 12
17 12 23 0 5 -5 3 -11 -5 -8 -12 -9 -8 -7 15 1 17 -1 35 -5 42 -4 7 0 16 10
22 25 14 7 14 -20 0 -21 -12 -21 -12 -3 16 10 15 13 24 7 21 -6 -4 -11 -1 -11
8 0 8 6 17 13 19 7 4 6 6 -5 6 -11 1 -15 7 -11 24 4 18 3 19 -6 7 -7 -9 -11
-10 -11 -3 0 6 5 15 11 18 6 5 4 12 -8 20 -10 7 -22 11 -27 8 -5 -4 -6 -1 -1
6 5 9 10 10 18 2 6 -6 16 -11 21 -11 6 0 2 6 -9 12 -23 14 -76 18 -69 6 3 -4
0 -8 -5 -8 -6 0 -11 6 -11 13 0 8 -4 7 -10 -3 -9 -13 -10 -13 -10 0 0 13 -1
13 -10 0 -5 -8 -10 -10 -10 -4 0 6 -7 11 -15 11 -8 0 -12 -4 -9 -9 3 -4 0 -8
-5 -8 -6 0 -11 6 -11 13 0 8 -4 7 -10 -3 -9 -13 -10 -13 -10 0 0 13 -1 13 -10
0 -5 -8 -10 -10 -10 -5 0 11 -59 14 -76 3 -12 -8 -34 -6 -51 5 -9 6 -11 3 -7
-10 6 -15 4 -15 -9 2 -9 11 -17 16 -17 11 0 -5 -7 -3 -15 4 -13 11 -14 10 -9
-4 3 -9 1 -16 -5 -16 -6 0 -11 4 -11 9 0 5 -7 12 -16 15 -13 5 -14 4 -6 -7 9
-10 8 -14 -3 -14 -8 0 -15 3 -15 7 0 4 -7 7 -15 7 -8 0 -12 -4 -9 -9 3 -4 0
-8 -5 -8 -6 0 -11 6 -11 13 0 8 -4 7 -10 -3 -9 -13 -10 -13 -10 0 0 13 -1 13
-10 0 -8 -12 -10 -12 -10 -1 0 10 -3 11 -14 2 -11 -10 -17 -8 -26 6 -10 16
-11 15 -6 -7z m-37 -416 c-3 -3 -12 -4 -19 -1 -8 3 -5 6 6 6 11 1 17 -2 13 -5z
m-3 -35 c-3 -5 -10 -7 -15 -3 -5 3 -7 10 -3 15 3 5 10 7 15 3 5 -3 7 -10 3
-15z m38 -194 c0 -5 -5 -10 -11 -11 -8 -2 -7 -1 0 3 8 4 7 8 -2 15 -11 8 -11
9 -1 6 8 -2 14 -8 14 -13z m48 -255 c0 -5 -2 -10 -4 -10 -3 0 -8 5 -11 10 -3
6 -1 10 4 10 6 0 11 -4 11 -10z"/>
<path d="M1410 4695 c0 -7 30 -13 34 -7 3 4 -4 9 -15 9 -10 1 -19 0 -19 -2z"/>
<path d="M3121 4692 c-1 -8 -6 -10 -13 -6 -9 5 -8 2 1 -9 12 -15 12 -17 -3
-11 -10 4 -18 0 -22 -10 -8 -22 -25 -20 -18 2 5 14 4 14 -4 2 -7 -9 -8 -18 -1
-26 7 -8 6 -15 -2 -20 -8 -4 -9 -3 -5 4 10 17 -6 14 -29 -5 -13 -10 -15 -14
-4 -10 9 3 16 0 16 -8 0 -7 -8 -12 -18 -10 -10 2 -22 -1 -25 -7 -4 -6 -3 -8 3
-5 6 4 11 -4 11 -18 0 -23 -1 -23 -17 -7 -9 10 -13 13 -8 8 11 -15 9 -48 -3
-41 -5 3 -10 -3 -10 -14 0 -11 -9 -22 -20 -26 -11 -3 -20 -11 -20 -18 0 -8 3
-8 12 1 7 7 16 12 22 12 5 0 -1 -9 -14 -20 -12 -11 -26 -17 -31 -14 -5 3 -6
-3 -2 -13 6 -16 5 -17 -13 -3 -18 14 -18 14 -5 -3 14 -18 16 -18 28 -1 7 10
15 15 18 12 4 -3 -5 -15 -19 -26 -14 -10 -22 -23 -18 -27 4 -5 0 -6 -9 -3 -9
4 -16 1 -16 -8 0 -7 4 -11 8 -9 9 6 6 -16 -5 -33 -4 -7 -15 -11 -23 -8 -8 3
-12 2 -9 -3 3 -4 -1 -17 -9 -27 -20 -26 -19 -39 3 -23 15 13 16 12 3 -4 -8
-10 -20 -16 -27 -13 -7 3 -16 1 -19 -5 -4 -5 -1 -8 6 -7 6 2 14 -3 17 -11 3
-9 0 -11 -8 -6 -10 6 -12 4 -7 -9 5 -11 3 -15 -5 -10 -7 5 -9 0 -6 -14 8 -30
-33 -62 -70 -56 -19 3 -23 2 -13 -5 8 -5 23 -8 34 -6 14 3 16 1 8 -9 -6 -7 -7
-17 -3 -22 4 -4 -1 -2 -11 5 -15 12 -17 12 -11 -4 5 -12 4 -16 -3 -12 -6 4 -9
-3 -7 -18 1 -16 -2 -23 -9 -18 -7 4 -8 0 -3 -12 6 -16 4 -16 -11 -4 -9 8 -14
9 -10 2 4 -7 0 -17 -10 -23 -16 -10 -16 -11 -1 -6 10 3 20 0 24 -6 4 -6 3 -8
-2 -5 -6 3 -16 2 -24 -4 -13 -7 -13 -9 0 -9 12 0 12 -2 2 -9 -7 -4 -14 -17
-15 -28 0 -12 -10 -26 -20 -33 -18 -11 -18 -10 -3 11 9 13 16 28 16 34 0 5 -9
-3 -20 -20 -18 -28 -18 -30 -2 -49 9 -11 11 -16 5 -12 -7 4 -13 2 -13 -3 0 -6
-5 -11 -11 -11 -8 0 -7 6 2 18 11 14 10 13 -9 -2 -22 -19 -30 -32 -13 -22 5 3
12 -1 15 -10 3 -8 2 -12 -4 -9 -5 3 -18 1 -27 -5 -15 -10 -15 -11 -1 -6 9 2
15 -1 14 -7 -3 -20 -17 -37 -29 -37 -7 0 -3 7 7 15 20 15 11 21 -10 7 -14 -9
-14 -43 -1 -35 6 4 7 1 3 -6 -5 -7 -15 -10 -24 -6 -9 3 -13 3 -9 -1 4 -4 1
-14 -6 -23 -10 -14 -10 -14 5 -3 12 10 18 10 24 1 4 -8 3 -9 -4 -5 -7 4 -12 1
-12 -9 0 -13 -4 -14 -22 -4 l-23 12 20 -23 c11 -13 15 -20 9 -17 -7 4 -14 -2
-17 -14 -3 -12 -10 -18 -16 -15 -5 4 -12 2 -15 -3 -4 -5 -1 -13 5 -17 8 -5 9
-3 4 7 -8 12 -6 12 8 0 22 -18 21 -20 -6 -17 -19 2 -23 -1 -21 -26 1 -15 -2
-25 -7 -22 -18 11 -29 -7 -17 -29 10 -19 9 -20 -4 -10 -15 13 -28 8 -28 -11 0
-6 5 -4 11 4 8 12 9 11 7 -5 -3 -13 -10 -19 -23 -17 -18 2 -19 2 -3 -8 17 -10
17 -13 2 -35 -9 -14 -19 -23 -23 -21 -3 2 -12 -3 -20 -11 -12 -13 -11 -14 10
-8 l24 7 -24 -17 c-18 -14 -20 -19 -10 -26 11 -7 10 -9 -4 -9 -11 0 -15 -4
-11 -12 5 -7 3 -8 -6 -3 -10 6 -12 2 -7 -16 6 -23 5 -23 -8 -5 -13 18 -14 17
-10 -12 2 -18 -1 -35 -7 -38 -7 -4 -8 -2 -4 4 4 7 2 12 -3 12 -6 0 -12 -10
-12 -22 -3 -48 -5 -53 -21 -52 -10 1 -18 -2 -18 -7 0 -5 5 -9 11 -9 5 0 8 -4
4 -9 -8 -13 25 -19 58 -10 24 7 27 6 17 -6 -9 -11 -8 -14 9 -12 11 0 18 4 15
8 -2 4 4 13 14 20 16 13 16 12 3 -4 -13 -17 -13 -18 1 -15 9 1 17 -1 17 -7 1
-5 -3 -10 -8 -10 -5 0 -12 -3 -16 -7 -9 -8 16 -5 32 5 6 4 9 17 6 30 -4 22 -4
21 10 -2 11 -18 16 -20 20 -10 4 10 6 10 6 2 1 -7 5 -13 11 -13 5 0 9 5 7 12
-1 7 9 13 24 13 17 1 25 -4 22 -11 -2 -7 1 -15 8 -20 8 -4 10 -3 5 4 -4 7 -3
12 3 12 6 0 8 8 5 18 -4 13 -2 13 8 -3 7 -11 19 -21 27 -23 12 -3 12 -1 0 14
-13 16 -12 16 7 6 16 -8 24 -8 33 1 10 9 12 9 9 -3 -2 -9 6 -15 22 -17 14 -1
17 1 8 3 -21 6 -23 20 -6 30 7 4 8 3 4 -4 -4 -7 -1 -12 8 -12 9 0 16 -5 16
-11 0 -5 5 -7 10 -4 6 4 8 11 4 17 -3 5 9 2 27 -8 33 -16 33 -16 19 1 -14 17
-13 17 6 7 16 -8 24 -8 33 1 9 9 11 9 9 0 -2 -6 2 -11 7 -11 6 0 9 4 7 10 -1
5 2 7 8 3 5 -3 10 -1 10 5 0 6 5 8 11 4 8 -5 8 -9 -1 -14 -8 -5 -9 -10 -1 -14
6 -4 16 2 22 13 12 19 13 18 31 -3 17 -20 18 -20 11 -1 -6 18 -5 18 10 6 15
-12 17 -11 17 4 0 14 3 15 14 6 19 -16 41 10 23 29 -9 10 -9 11 1 6 8 -5 17 4
27 26 13 29 21 31 15 3 -1 -5 2 -6 7 -2 4 5 8 14 8 20 1 7 6 11 11 10 6 -1 11
14 10 35 -1 30 3 37 17 36 15 -2 16 1 5 14 -10 12 -10 14 0 8 11 -7 16 6 15
41 -1 7 3 10 8 7 9 -5 12 7 10 36 0 10 1 11 5 3 9 -22 23 -14 19 10 -4 20 -3
20 9 5 12 -16 13 -14 14 14 0 17 5 34 10 37 5 3 8 14 6 24 -2 14 1 15 10 8 10
-8 12 -4 11 17 -1 18 3 29 11 29 10 0 10 -6 3 -21 -10 -20 -10 -20 5 -2 11 13
13 23 6 31 -7 9 -6 16 5 25 8 7 12 16 9 21 -3 5 1 6 9 3 8 -3 18 0 23 7 4 7 3
10 -3 6 -6 -4 -13 -1 -16 6 -6 15 20 16 43 2 13 -8 13 -6 1 8 -7 9 -18 14 -24
10 -6 -3 -7 -1 -3 5 4 7 15 12 24 12 13 0 13 2 -4 15 -16 13 -16 14 -1 9 13
-5 17 -1 17 16 0 14 4 19 12 14 8 -5 9 -2 5 10 -5 13 -3 17 6 13 8 -3 14 5 15
22 1 14 7 28 12 29 6 2 8 8 5 12 -3 5 0 12 6 16 7 4 9 3 5 -4 -3 -6 -2 -13 3
-16 11 -7 9 13 -3 33 -7 10 -6 12 4 6 10 -6 12 -4 6 10 -5 15 -4 16 8 6 13
-11 15 -9 11 9 -3 18 -1 20 18 14 22 -6 22 -6 2 10 -18 13 -18 15 -3 16 11 0
15 5 12 15 -4 8 -2 15 4 15 5 0 12 9 15 21 3 12 10 18 16 15 5 -4 13 -1 17 5
4 7 3 9 -3 6 -6 -4 -13 2 -16 14 -4 15 -2 18 7 10 8 -7 16 -4 26 12 12 20 12
21 -3 9 -14 -12 -15 -11 -4 12 6 13 15 20 18 14 4 -5 9 -3 13 7 3 9 11 13 17
9 8 -4 9 -3 5 5 -4 6 -11 9 -16 6 -7 -4 -6 24 0 33 2 1 3 8 4 15 1 6 10 11 20
9 14 -3 17 1 13 12 -4 11 -1 16 11 16 15 0 15 2 2 10 -13 8 -13 10 3 11 30 3
35 4 43 11 3 4 -3 6 -15 3 -28 -5 -27 9 2 24 22 11 22 11 -3 5 -24 -6 -24 -6
-5 9 11 8 24 13 30 10 5 -2 2 2 -8 10 -16 13 -16 15 -2 21 9 3 14 2 11 -2 -3
-5 1 -9 9 -9 8 0 12 4 9 9 -14 23 -11 44 7 45 10 1 19 -3 19 -9 0 -6 3 -8 6
-5 4 4 1 13 -6 22 -8 10 -9 15 -1 15 6 0 11 5 11 11 0 5 -5 7 -12 3 -7 -4 -8
-3 -4 5 6 9 11 9 22 0 9 -7 14 -8 13 -3 -4 21 2 35 11 29 6 -3 10 -1 10 4 0
14 -13 14 -27 0 -9 -9 -11 -8 -9 4 3 20 14 32 29 32 7 0 12 10 12 22 1 33 17
44 39 27 11 -8 15 -14 8 -14 -6 0 -19 -11 -28 -26 -13 -19 -14 -28 -5 -37 10
-9 11 -9 6 4 -3 9 3 23 17 35 13 11 18 12 10 3 -6 -9 -9 -19 -5 -22 3 -4 1
-13 -5 -20 -7 -8 -9 -16 -6 -19 3 -3 -2 -5 -12 -4 -9 0 -19 -6 -21 -14 -4 -12
-3 -12 5 -2 7 11 11 8 14 -12 5 -26 -6 -36 -15 -13 -4 7 -6 6 -6 -4 -1 -9 6
-19 14 -23 8 -3 15 -11 15 -18 0 -8 -3 -9 -8 -3 -10 14 -42 18 -42 5 0 -6 5
-8 10 -5 11 7 12 3 14 -45 1 -28 0 -29 -13 -13 -13 17 -13 17 -7 -1 3 -10 2
-24 -4 -31 -8 -9 -6 -17 5 -29 10 -9 12 -16 5 -16 -6 0 -8 -6 -5 -12 4 -7 -1
-4 -9 6 -18 23 -21 14 -5 -15 8 -15 7 -24 -3 -37 -11 -14 -11 -15 5 -9 13 5
16 3 10 -6 -12 -19 -12 -36 -1 -44 7 -3 8 -1 4 5 -4 7 -2 12 4 12 6 0 8 5 4
11 -5 8 -1 8 14 0 27 -14 35 -14 26 1 -4 7 -3 8 5 4 18 -12 1 -27 -22 -20 -12
3 -19 3 -14 -1 10 -11 87 -14 81 -3 -3 5 -10 6 -15 3 -5 -4 -9 -2 -9 4 0 5 9
9 20 8 11 -1 20 -4 20 -8 0 -4 7 -9 15 -13 13 -5 14 -2 4 17 -10 19 -10 20 2
11 8 -6 22 -10 32 -8 13 1 17 -2 13 -12 -3 -8 -1 -14 4 -14 6 0 10 8 10 18 1
16 1 16 11 0 5 -9 16 -15 24 -12 8 4 13 9 11 13 -3 4 11 7 30 7 24 0 33 -4 30
-13 -3 -7 -1 -13 4 -13 6 0 10 6 10 13 0 7 11 13 25 13 19 0 24 -4 20 -16 -3
-10 0 -17 8 -17 9 0 13 8 10 21 -4 19 -3 19 7 4 6 -9 17 -15 25 -12 8 4 13 9
11 13 -3 4 11 7 30 7 29 0 33 -3 28 -20 -5 -16 -4 -17 9 -5 8 8 13 16 12 19
-2 3 12 6 31 6 37 0 41 -5 22 -25 -11 -10 -10 -11 5 -6 9 4 17 15 17 24 0 13
2 14 9 1 6 -8 7 -18 4 -23 -3 -5 4 -3 15 4 12 7 19 16 16 20 -2 4 0 11 6 14 6
4 9 3 8 -2 -3 -7 7 -15 15 -12 14 6 79 3 84 -4 3 -6 2 -7 -3 -4 -6 3 -16 1
-24 -5 -13 -8 -12 -9 1 -5 9 3 21 1 27 -5 7 -7 10 -3 8 15 -2 18 1 24 11 20 8
-3 11 -13 8 -23 -3 -10 -1 -21 4 -25 7 -4 8 1 4 12 -6 16 -5 17 12 3 17 -13
18 -13 10 0 -13 21 -15 41 -4 34 5 -3 7 -10 4 -15 -8 -12 8 -12 21 1 6 6 10 0
9 -20 0 -20 -4 -29 -12 -25 -7 2 -13 0 -13 -5 0 -6 5 -10 11 -10 5 0 8 -4 4
-10 -3 -5 -12 -7 -20 -3 -8 3 -15 0 -15 -5 0 -6 9 -9 19 -7 11 2 22 -3 25 -10
3 -9 0 -12 -10 -8 -15 5 -16 3 -18 -63 0 -26 -8 -50 -20 -63 -11 -12 -14 -21
-8 -21 7 0 12 5 12 10 0 6 5 10 11 10 8 0 8 -5 -1 -15 -10 -12 -10 -15 1 -15
12 0 12 -2 0 -9 -8 -5 -11 -16 -8 -25 4 -9 3 -15 -1 -15 -19 3 -25 -2 -12 -11
13 -8 13 -10 -1 -10 -12 0 -15 -7 -11 -25 2 -14 9 -22 15 -18 6 3 7 1 3 -6 -4
-6 -12 -9 -17 -6 -5 4 -9 1 -9 -5 0 -6 -6 -8 -12 -5 -7 4 -4 -1 6 -9 17 -13
18 -18 6 -29 -7 -6 -10 -7 -7 -1 3 6 0 11 -8 11 -9 0 -11 -5 -7 -11 7 -10 8
-18 3 -43 -1 -5 -5 -2 -10 5 -7 11 -9 10 -14 -3 -4 -9 -3 -13 2 -10 5 3 12 1
16 -5 3 -6 -1 -13 -9 -16 -20 -8 -21 -21 -1 -21 8 0 11 5 8 10 -3 6 -1 7 5 4
9 -6 9 -27 2 -47 -1 -3 -2 -8 -1 -12 0 -4 -5 -5 -12 -2 -8 3 -14 -2 -14 -10 0
-8 4 -13 9 -10 10 6 6 -26 -6 -45 -7 -11 -10 -11 -18 0 -8 11 -9 11 -5 -1 2
-8 13 -14 23 -13 10 1 13 0 6 -3 -6 -3 -9 -11 -5 -17 4 -7 0 -8 -11 -4 -12 5
-16 3 -13 -5 2 -7 9 -12 15 -11 12 3 10 -23 -3 -34 -4 -4 -5 -2 0 6 6 10 4 12
-4 7 -9 -6 -9 -11 0 -22 7 -8 7 -14 1 -14 -5 0 -13 -11 -16 -25 -4 -17 -11
-23 -24 -19 -9 2 -3 -2 13 -10 17 -8 24 -15 17 -16 -8 0 -10 -5 -6 -12 5 -9 2
-8 -9 1 -15 12 -17 12 -11 -4 5 -11 4 -16 -3 -12 -5 3 -10 0 -10 -8 0 -8 6
-16 13 -19 8 -3 11 0 7 10 -3 7 -1 14 5 14 14 0 9 -27 -8 -43 -10 -10 -11 -9
-5 3 5 8 4 11 0 7 -12 -10 -15 -38 -4 -31 5 3 9 0 9 -6 0 -6 8 -10 18 -9 35 3
63 -1 58 -9 -3 -5 1 -9 9 -9 8 0 12 5 8 10 -3 5 4 6 17 2 15 -5 20 -3 16 3 -3
6 -1 14 5 18 8 4 9 3 5 -4 -4 -7 -1 -12 8 -12 9 0 16 -5 16 -11 0 -5 5 -7 10
-4 8 5 7 12 -2 23 -12 15 -11 15 11 0 17 -12 30 -14 47 -8 15 6 26 5 30 -2 5
-7 12 -5 22 8 13 18 14 18 7 -6 -7 -21 -6 -23 7 -12 9 7 24 9 33 5 12 -4 16
-3 12 4 -5 7 1 9 15 5 16 -4 19 -2 13 8 -5 9 -4 11 4 6 9 -6 9 -11 1 -21 -9
-11 -7 -14 9 -12 14 1 20 6 16 16 -4 11 -3 12 10 1 8 -7 15 -9 15 -4 0 4 5 3
12 -4 7 -7 8 -16 2 -25 -5 -7 -2 -5 7 5 9 9 20 14 24 10 5 -4 5 -1 1 6 -4 7
-13 9 -19 6 -7 -4 -9 -3 -4 1 4 5 18 9 31 10 20 0 22 -2 14 -13 -9 -10 -6 -12
16 -8 15 3 35 11 44 18 10 9 13 9 9 1 -9 -14 61 -6 81 10 6 5 12 6 12 1 0 -5
4 -3 9 4 4 7 17 14 29 15 16 1 19 5 11 18 -6 12 -4 21 8 30 11 10 14 10 9 2
-5 -9 -2 -11 9 -6 13 4 14 8 4 14 -8 4 -10 11 -7 15 4 4 3 15 -3 26 -10 18 -9
19 13 7 21 -11 22 -11 9 4 -7 10 -10 17 -6 17 4 0 2 6 -4 14 -10 12 -8 14 11
10 13 -2 17 -2 10 2 -6 3 -10 10 -7 15 4 5 -2 6 -12 3 -14 -5 -15 -4 -4 4 8 6
10 15 5 23 -6 10 -3 10 11 -1 12 -10 16 -11 11 -2 -14 24 -14 63 1 69 10 4 11
9 3 18 -8 10 -8 15 1 21 8 5 10 3 4 -7 -5 -8 -4 -10 0 -6 14 12 15 38 2 30
-13 -7 11 26 28 40 6 5 3 7 -7 3 -10 -3 -18 -1 -18 4 0 6 8 10 18 11 15 0 15
1 -2 8 -18 7 -18 8 -3 14 9 3 17 12 17 19 0 9 -3 9 -10 -2 -7 -12 -9 -10 -7 8
1 12 6 21 12 19 6 -3 9 14 8 44 0 27 3 46 8 43 5 -3 9 0 9 6 0 6 4 8 10 5 6
-4 7 1 3 11 -4 11 -8 13 -11 6 -2 -7 -8 -12 -13 -12 -4 0 -4 12 2 28 6 15 11
29 12 32 1 3 9 4 17 3 11 -1 10 2 -4 12 -16 12 -17 17 -6 30 12 14 11 18 -1
26 -11 7 -8 9 10 9 24 0 24 0 5 16 -10 8 -13 12 -5 8 11 -5 13 -3 7 11 -5 15
-4 16 9 5 13 -11 14 -10 9 4 -3 9 -10 16 -15 16 -5 0 -9 4 -9 10 0 5 6 7 14 4
8 -3 17 0 22 7 4 7 3 10 -3 6 -6 -4 -13 -1 -16 7 -4 9 3 16 16 20 16 4 19 8
10 17 -6 6 -9 18 -6 27 5 11 2 13 -8 7 -11 -6 -12 -5 -2 5 10 10 15 11 27 1
11 -9 16 -9 22 0 4 7 3 9 -3 6 -6 -4 -16 -1 -22 7 -9 10 -7 17 6 27 9 8 14 9
10 3 -3 -6 4 -16 17 -22 17 -8 23 -7 23 3 0 7 -6 11 -14 8 -7 -3 -13 -1 -13 4
0 5 20 9 45 9 33 0 44 -4 41 -13 -3 -7 -1 -13 4 -13 6 0 10 6 10 14 0 8 9 14
19 13 11 0 17 -5 15 -9 -3 -5 -10 -5 -16 -2 -7 4 -8 2 -4 -4 9 -15 36 -3 37
17 0 13 2 12 8 -3 4 -11 17 -20 29 -21 11 -1 19 2 16 7 -4 5 -13 7 -21 4 -8
-3 -11 -2 -8 3 6 11 45 10 45 0 0 -4 7 -9 15 -13 13 -5 14 -2 4 17 -10 18 -10
20 2 11 8 -5 24 -9 37 -8 12 0 22 -2 22 -6 0 -4 7 -10 15 -14 13 -5 14 -2 4
17 -10 18 -10 20 2 11 8 -5 24 -9 37 -8 12 0 22 -2 22 -6 0 -4 7 -10 15 -14
13 -5 14 -2 4 17 -10 18 -10 20 2 11 8 -5 24 -9 37 -8 12 0 22 -2 22 -6 0 -4
7 -10 15 -14 13 -5 14 -2 4 17 -10 19 -10 20 2 11 8 -6 22 -10 32 -8 13 1 17
-2 13 -12 -3 -8 -1 -14 4 -14 6 0 10 8 10 17 0 15 2 14 14 -3 12 -16 17 -17
28 -6 11 11 10 12 -4 7 -10 -4 -18 -3 -18 3 0 6 12 9 26 6 19 -3 24 -1 18 8
-6 10 -5 11 7 1 12 -9 18 -10 27 -1 8 8 13 7 18 -5 3 -9 10 -17 16 -17 5 0 6
6 2 13 -4 6 -4 9 1 5 4 -4 15 -2 24 5 14 10 14 10 3 -4 -10 -14 -10 -18 3 -23
11 -4 14 -2 9 6 -5 8 -2 9 11 4 16 -6 16 -4 4 11 -13 17 -13 17 13 0 19 -12
29 -14 34 -5 4 6 3 8 -3 5 -6 -4 -13 0 -16 8 -4 9 -1 12 8 9 23 -9 38 6 23 24
-11 13 -10 14 8 4 20 -11 22 -9 20 17 -2 22 2 28 14 23 13 -5 13 -4 0 13 -9
11 -10 16 -2 11 6 -4 12 -3 12 3 0 5 -6 12 -12 15 -7 4 -3 4 10 2 12 -2 22 0
22 5 0 5 -7 9 -15 9 -18 0 -20 16 -3 26 7 5 8 2 3 -7 -7 -12 -6 -12 6 0 11 11
11 14 1 18 -10 4 -10 8 0 21 8 10 9 13 1 9 -13 -8 -11 6 7 48 8 17 14 51 15
77 1 26 5 51 10 55 4 5 5 2 0 -6 -6 -10 -4 -12 4 -7 7 5 10 10 7 13 -3 3 -1
14 4 24 7 12 7 20 0 24 -17 10 -11 25 8 19 10 -4 13 -3 6 3 -6 4 -14 17 -17
27 -6 16 -5 17 8 6 13 -11 14 -10 9 5 -6 14 -4 16 6 10 9 -5 11 -4 6 4 -4 6
-13 9 -19 5 -7 -3 -4 1 6 9 16 13 16 15 2 21 -11 4 -14 2 -10 -7 4 -6 -1 -3
-9 7 -12 15 -16 16 -16 5 0 -12 -2 -12 -10 1 -9 13 -10 13 -10 0 0 -13 -1 -13
-10 0 -9 13 -10 13 -10 0 -1 -11 -4 -10 -17 5 -12 16 -14 16 -10 3 3 -10 2
-20 -4 -23 -5 -4 -9 -3 -8 2 4 20 -2 24 -18 12 -14 -12 -16 -12 -8 0 6 11 4
13 -7 8 -9 -3 -21 0 -27 6 -9 9 -11 8 -6 -5 4 -11 2 -18 -4 -18 -6 0 -11 4
-11 9 0 5 -7 12 -16 15 -13 5 -14 4 -6 -7 9 -10 8 -14 -3 -14 -8 0 -15 4 -15
8 0 5 -11 4 -25 -1 -14 -5 -25 -7 -25 -4 0 4 -7 1 -16 -6 -12 -11 -15 -11 -12
1 2 8 -3 13 -9 11 -7 -1 -13 4 -13 10 0 7 -5 5 -11 -5 -8 -14 -14 -16 -24 -7
-8 7 -19 9 -25 5 -6 -4 -18 -1 -27 7 -15 12 -15 11 -3 -12 12 -23 12 -24 -4
-10 -19 15 -60 25 -53 12 3 -4 -12 -8 -34 -8 -21 -1 -39 4 -39 9 0 6 -3 7 -7
4 -3 -4 -13 -1 -21 6 -13 11 -14 9 -2 -13 12 -23 12 -24 -4 -10 -19 15 -60 25
-53 12 3 -4 -12 -8 -34 -8 -21 -1 -39 3 -39 7 0 5 -11 4 -25 -1 -14 -5 -25 -7
-25 -4 0 4 -8 0 -17 -7 -10 -7 -15 -9 -11 -5 4 5 3 15 -4 23 -9 11 -14 11 -29
-3 -17 -15 -19 -15 -34 0 -19 19 -32 22 -17 4 8 -10 4 -13 -14 -14 -13 -1 -24
3 -24 10 0 6 -5 4 -10 -4 -9 -13 -10 -13 -10 0 0 13 -1 13 -10 0 -5 -8 -10
-10 -10 -5 0 11 -59 14 -76 3 -12 -8 -34 -6 -51 5 -9 6 -11 3 -7 -10 6 -15 4
-15 -9 2 -9 11 -17 16 -17 11 0 -5 -7 -3 -15 4 -13 11 -14 10 -9 -4 3 -9 1
-16 -5 -16 -6 0 -11 4 -11 9 0 5 -7 12 -16 15 -13 5 -14 4 -6 -7 9 -10 8 -14
-3 -14 -8 0 -15 4 -15 8 0 5 -11 4 -25 -1 -14 -5 -25 -7 -25 -4 0 4 -7 1 -16
-6 -12 -11 -15 -11 -12 1 2 8 -3 13 -9 11 -7 -1 -13 4 -13 10 0 7 -5 5 -11 -5
-8 -14 -14 -16 -24 -7 -8 7 -19 9 -25 5 -6 -4 -18 -1 -27 7 -15 12 -15 11 -3
-12 12 -23 12 -24 -4 -10 -19 15 -60 25 -53 12 3 -4 -12 -8 -34 -8 -21 -1 -39
4 -39 9 0 6 -3 7 -7 4 -3 -4 -13 -1 -21 6 -13 11 -14 9 -2 -13 12 -23 12 -24
-4 -10 -19 15 -60 25 -53 12 3 -4 -12 -8 -34 -8 -21 -1 -39 3 -39 7 0 5 -11 4
-25 -1 -14 -5 -25 -7 -25 -4 0 4 -8 0 -17 -7 -10 -7 -15 -9 -11 -5 4 5 3 15
-4 23 -9 11 -14 11 -29 -3 -17 -15 -19 -15 -34 0 -19 19 -32 22 -17 4 8 -10 4
-13 -14 -14 -13 -1 -24 3 -24 10 0 6 -5 4 -10 -4 -9 -13 -10 -13 -10 0 0 13
-1 13 -10 0 -5 -8 -10 -10 -10 -5 0 11 -59 14 -76 3 -12 -8 -34 -6 -51 5 -9 6
-11 3 -7 -10 6 -15 4 -15 -9 2 -9 11 -17 16 -17 11 0 -5 -7 -3 -15 4 -13 11
-14 10 -9 -4 3 -9 1 -16 -5 -16 -6 0 -11 4 -11 9 0 5 -7 12 -16 15 -13 5 -14
4 -6 -7 9 -10 8 -14 -3 -14 -8 0 -15 4 -15 8 0 5 -11 4 -25 -1 -14 -5 -25 -7
-25 -4 0 4 -7 1 -16 -6 -12 -11 -15 -11 -12 1 2 8 -3 13 -9 11 -7 -1 -13 3
-13 10 0 6 -7 3 -15 -8 -10 -13 -17 -15 -22 -8 -9 13 -49 12 -60 -1 -5 -4 -3
-5 4 -1 6 3 14 2 17 -3 4 -5 -2 -8 -11 -6 -10 2 -22 4 -26 4 -5 1 -5 6 -1 13
5 7 3 8 -5 4 -9 -6 -8 -12 4 -26 11 -12 13 -20 5 -25 -6 -3 -9 -1 -8 6 2 6 -3
14 -11 17 -8 2 -11 0 -7 -6 3 -6 1 -14 -5 -17 -15 -10 -24 2 -11 17 7 9 6 17
-4 26 -8 7 -14 8 -14 2 0 -5 -5 -10 -11 -10 -5 0 -8 4 -4 9 3 5 1 12 -4 15 -5
4 -13 1 -17 -5 -5 -8 -3 -9 7 -4 12 7 12 5 1 -6 -9 -9 -15 -10 -20 -3 -8 13
-45 28 -38 15 3 -5 -1 -14 -9 -21 -13 -11 -14 -10 -10 2 4 9 0 15 -10 15 -8 0
-15 -5 -15 -11 0 -6 -5 -4 -11 4 -8 11 -12 12 -16 3 -8 -20 -26 -15 -18 5 5
13 3 14 -6 5 -6 -6 -18 -9 -27 -6 -10 4 -13 2 -8 -5 3 -6 1 -14 -5 -18 -8 -4
-9 -3 -5 5 9 14 -29 11 -54 -3 -8 -5 -12 -6 -8 -1 4 4 3 14 -4 22 -9 11 -14
11 -29 -3 -17 -15 -19 -15 -34 0 -19 19 -32 22 -17 4 8 -10 4 -13 -14 -14 -13
-1 -24 3 -24 10 0 6 -5 4 -10 -4 -9 -13 -10 -13 -10 0 0 13 -1 13 -10 0 -5 -8
-10 -10 -10 -5 0 9 -54 13 -70 5 -13 -6 -59 -6 -55 0 2 4 -3 7 -11 7 -8 0 -13
-6 -10 -14 3 -7 3 -13 0 -13 -2 0 -9 10 -14 23 -5 12 -9 16 -9 9z m623 -98 c3
-8 2 -12 -4 -9 -6 3 -10 10 -10 16 0 14 7 11 14 -7z m6 -35 c0 -14 -17 -10
-23 5 -4 10 -1 13 9 9 7 -3 14 -9 14 -14z m2393 -14 c-3 -9 -8 -14 -10 -11 -3
3 -2 9 2 15 9 16 15 13 8 -4z m-27 -121 c1 -9 0 -13 -4 -10 -3 4 -7 14 -8 22
-1 9 0 13 4 10 3 -4 7 -14 8 -22z m-2422 -162 c3 -5 -1 -9 -9 -9 -8 0 -12 4
-9 9 3 4 7 8 9 8 2 0 6 -4 9 -8z m791 -271 c3 -5 2 -12 -3 -15 -5 -3 -9 1 -9
9 0 17 3 19 12 6z m-65 -351 c0 -5 -5 -10 -11 -10 -5 0 -7 5 -4 10 3 6 8 10
11 10 2 0 4 -4 4 -10z m-1406 -331 c-3 -5 -10 -7 -15 -3 -5 3 -7 10 -3 15 3 5
10 7 15 3 5 -3 7 -10 3 -15z m-64 -93 c0 -3 -4 -8 -10 -11 -5 -3 -10 -1 -10 4
0 6 5 11 10 11 6 0 10 -2 10 -4z m1920 -10 c0 -2 -8 -10 -17 -17 -16 -13 -17
-12 -4 4 13 16 21 21 21 13z"/>
<path d="M3185 4690 c-3 -6 1 -7 9 -4 18 7 21 14 7 14 -6 0 -13 -4 -16 -10z"/>
<path d="M4130 4695 c0 -7 30 -13 34 -7 3 4 -4 9 -15 9 -10 1 -19 0 -19 -2z"/>
<path d="M4506 4692 c-3 -5 1 -9 9 -9 8 0 12 4 9 9 -3 4 -7 8 -9 8 -2 0 -6 -4
-9 -8z"/>
<path d="M4666 4692 c-3 -5 1 -9 9 -9 8 0 12 4 9 9 -3 4 -7 8 -9 8 -2 0 -6 -4
-9 -8z"/>
<path d="M5090 4695 c0 -7 30 -13 34 -7 3 4 -4 9 -15 9 -10 1 -19 0 -19 -2z"/>
<path d="M5466 4692 c-3 -5 1 -9 9 -9 8 0 12 4 9 9 -3 4 -7 8 -9 8 -2 0 -6 -4
-9 -8z"/>
<path d="M5626 4692 c-3 -5 1 -9 9 -9 8 0 12 4 9 9 -3 4 -7 8 -9 8 -2 0 -6 -4
-9 -8z"/>
<path d="M1115 4680 c3 -5 8 -10 11 -10 2 0 4 5 4 10 0 6 -5 10 -11 10 -5 0
-7 -4 -4 -10z"/>
<path d="M3706 4541 c-4 -5 -2 -12 3 -15 5 -4 12 -2 15 3 4 5 2 12 -3 15 -5 4
-12 2 -15 -3z"/>
<path d="M1015 4460 c3 -5 8 -10 11 -10 2 0 4 5 4 10 0 6 -5 10 -11 10 -5 0
-7 -4 -4 -10z"/>
<path d="M1050 4442 c0 -5 7 -9 15 -9 8 0 12 4 9 9 -3 4 -9 8 -15 8 -5 0 -9
-4 -9 -8z"/>
<path d="M1071 4404 c0 -11 3 -14 6 -6 3 7 2 16 -1 19 -3 4 -6 -2 -5 -13z"/>
<path d="M6105 4360 c-3 -5 -1 -10 4 -10 6 0 11 5 11 10 0 6 -2 10 -4 10 -3 0
-8 -4 -11 -10z"/>
<path d="M2854 4338 c-4 -6 -3 -8 4 -4 5 3 12 1 14 -6 3 -8 6 -9 11 -1 4 6 0
13 -8 17 -8 3 -17 0 -21 -6z"/>
<path d="M1074 4290 c0 -13 4 -16 10 -10 7 7 7 13 0 20 -6 6 -10 3 -10 -10z"/>
<path d="M2773 4223 c4 -3 1 -13 -6 -22 -11 -14 -10 -14 5 -2 16 12 16 31 1
31 -4 0 -3 -3 0 -7z"/>
<path d="M3616 4222 c-3 -5 1 -9 9 -9 8 0 12 4 9 9 -3 4 -7 8 -9 8 -2 0 -6 -4
-9 -8z"/>
<path d="M3503 4193 c4 -3 1 -13 -6 -22 -10 -14 -10 -14 4 -4 9 7 20 9 25 5 4
-4 2 1 -5 11 -7 9 -16 17 -19 17 -3 0 -2 -3 1 -7z"/>
<path d="M2772 4165 c-11 -24 -10 -25 8 -15 11 6 17 16 14 25 -8 20 -9 19 -22
-10z"/>
<path d="M3635 4180 c3 -5 8 -10 11 -10 2 0 4 5 4 10 0 6 -5 10 -11 10 -5 0
-7 -4 -4 -10z"/>
<path d="M1102 4160 c0 -14 2 -19 5 -12 2 6 2 18 0 25 -3 6 -5 1 -5 -13z"/>
<path d="M1067 4159 c7 -7 15 -10 18 -7 3 3 -2 9 -12 12 -14 6 -15 5 -6 -5z"/>
<path d="M1823 4153 c0 -9 4 -10 14 -2 7 6 13 12 13 14 0 1 -6 2 -13 2 -8 0
-14 -6 -14 -14z"/>
<path d="M1115 4131 c-3 -5 -2 -12 3 -15 5 -3 9 1 9 9 0 17 -3 19 -12 6z"/>
<path d="M1000 4126 c0 -2 8 -10 18 -17 15 -13 16 -12 3 4 -13 16 -21 21 -21
13z"/>
<path d="M5885 4120 c-3 -5 -1 -10 4 -10 6 0 11 5 11 10 0 6 -2 10 -4 10 -3 0
-8 -4 -11 -10z"/>
<path d="M3936 4108 c3 -5 10 -6 15 -3 13 9 11 12 -6 12 -8 0 -12 -4 -9 -9z"/>
<path d="M4005 4109 c-4 -6 -5 -12 -2 -15 2 -3 7 2 10 11 7 17 1 20 -8 4z"/>
<path d="M4113 4103 c0 -7 4 -13 8 -13 4 0 9 6 12 13 3 8 0 14 -7 14 -7 0 -13
-6 -13 -14z"/>
<path d="M4193 4103 c0 -7 4 -13 8 -13 4 0 9 6 12 13 3 8 0 14 -7 14 -7 0 -13
-6 -13 -14z"/>
<path d="M4330 4109 c0 -4 6 -9 13 -12 8 -3 14 0 14 7 0 7 -6 13 -14 13 -7 0
-13 -4 -13 -8z"/>
<path d="M5300 4110 c-9 -6 -10 -10 -3 -10 6 0 15 5 18 10 8 12 4 12 -15 0z"/>
<path d="M5510 4116 c0 -2 7 -7 16 -10 8 -3 12 -2 9 4 -6 10 -25 14 -25 6z"/>
<path d="M5590 4116 c0 -2 7 -7 16 -10 8 -3 12 -2 9 4 -6 10 -25 14 -25 6z"/>
<path d="M5670 4116 c0 -2 7 -7 16 -10 8 -3 12 -2 9 4 -6 10 -25 14 -25 6z"/>
<path d="M3794 4086 c1 -8 5 -18 8 -22 4 -3 5 1 4 10 -1 8 -5 18 -8 22 -4 3
-5 -1 -4 -10z"/>
<path d="M5474 4086 c1 -8 5 -18 8 -22 4 -3 5 1 4 10 -1 8 -5 18 -8 22 -4 3
-5 -1 -4 -10z"/>
<path d="M5513 4085 c0 -8 4 -12 9 -9 5 3 6 10 3 15 -9 13 -12 11 -12 -6z"/>
<path d="M5593 4085 c0 -8 4 -12 9 -9 5 3 6 10 3 15 -9 13 -12 11 -12 -6z"/>
<path d="M5634 4086 c1 -8 5 -18 8 -22 4 -3 5 1 4 10 -1 8 -5 18 -8 22 -4 3
-5 -1 -4 -10z"/>
<path d="M5673 4085 c0 -8 4 -12 9 -9 5 3 6 10 3 15 -9 13 -12 11 -12 -6z"/>
<path d="M3916 4078 c3 -5 10 -6 15 -3 13 9 11 12 -6 12 -8 0 -12 -4 -9 -9z"/>
<path d="M3953 4073 c0 -9 4 -10 14 -2 7 6 13 12 13 14 0 1 -6 2 -13 2 -8 0
-14 -6 -14 -14z"/>
<path d="M4365 4079 c-3 -4 2 -6 10 -5 21 3 28 13 10 13 -9 0 -18 -4 -20 -8z"/>
<path d="M5279 4073 c-13 -16 -12 -17 4 -4 9 7 17 15 17 17 0 8 -8 3 -21 -13z"/>
<path d="M5310 4085 c0 -5 5 -17 10 -25 5 -8 10 -10 10 -5 0 6 -5 17 -10 25
-5 8 -10 11 -10 5z"/>
<path d="M5359 4073 c-13 -16 -12 -17 4 -4 9 7 17 15 17 17 0 8 -8 3 -21 -13z"/>
<path d="M5416 4078 c3 -4 11 -5 19 -1 21 7 19 12 -4 10 -11 0 -18 -5 -15 -9z"/>
<path d="M5760 4080 c-12 -7 -10 -9 7 -7 12 0 19 5 17 9 -6 10 -6 10 -24 -2z"/>
<path d="M5836 4078 c3 -5 10 -6 15 -3 13 9 11 12 -6 12 -8 0 -12 -4 -9 -9z"/>
<path d="M2696 4062 c-3 -5 1 -9 9 -9 8 0 12 4 9 9 -3 4 -7 8 -9 8 -2 0 -6 -4
-9 -8z"/>
<path d="M5230 4056 c0 -2 8 -10 18 -17 15 -13 16 -12 3 4 -13 16 -21 21 -21
13z"/>
<path d="M4105 4039 c-3 -4 2 -6 10 -5 21 3 28 13 10 13 -9 0 -18 -4 -20 -8z"/>
<path d="M4416 4038 c3 -5 10 -6 15 -3 13 9 11 12 -6 12 -8 0 -12 -4 -9 -9z"/>
<path d="M4310 4016 c0 -2 8 -10 18 -17 15 -13 16 -12 3 4 -13 16 -21 21 -21
13z"/>
<path d="M4410 3979 c0 -5 5 -7 10 -4 6 3 10 8 10 11 0 2 -4 4 -10 4 -5 0 -10
-5 -10 -11z"/>
<path d="M4441 3954 c0 -11 3 -14 6 -6 3 7 2 16 -1 19 -3 4 -6 -2 -5 -13z"/>
<path d="M4390 3916 c7 -7 13 -7 20 0 6 6 3 10 -10 10 -13 0 -16 -4 -10 -10z"/>
<path d="M4440 3920 c-9 -6 -10 -10 -3 -10 6 0 15 5 18 10 8 12 4 12 -15 0z"/>
<path d="M1073 3875 c0 -8 4 -12 9 -9 5 3 6 10 3 15 -9 13 -12 11 -12 -6z"/>
<path d="M5153 3815 c0 -8 4 -12 9 -9 5 3 6 10 3 15 -9 13 -12 11 -12 -6z"/>
<path d="M1109 3763 c-13 -16 -12 -17 4 -4 9 7 17 15 17 17 0 8 -8 3 -21 -13z"/>
<path d="M1180 3739 c0 -5 5 -7 10 -4 6 3 10 8 10 11 0 2 -4 4 -10 4 -5 0 -10
-5 -10 -11z"/>
<path d="M1903 3655 c0 -8 4 -12 9 -9 5 3 6 10 3 15 -9 13 -12 11 -12 -6z"/>
<path d="M3195 3640 c-3 -5 -1 -10 4 -10 6 0 11 5 11 10 0 6 -2 10 -4 10 -3 0
-8 -4 -11 -10z"/>
<path d="M1159 3628 c-5 -18 -6 -38 -1 -34 7 8 12 36 6 36 -2 0 -4 -1 -5 -2z"/>
<path d="M4376 3568 c3 -5 10 -6 15 -3 13 9 11 12 -6 12 -8 0 -12 -4 -9 -9z"/>
<path d="M1175 3540 c3 -5 8 -10 11 -10 2 0 4 5 4 10 0 6 -5 10 -11 10 -5 0
-7 -4 -4 -10z"/>
<path d="M3140 3526 c0 -2 7 -7 16 -10 8 -3 12 -2 9 4 -6 10 -25 14 -25 6z"/>
<path d="M1176 3507 c3 -10 9 -15 12 -12 3 3 0 11 -7 18 -10 9 -11 8 -5 -6z"/>
<path d="M2384 3465 c-10 -8 -14 -15 -8 -15 6 0 17 7 24 15 16 19 9 19 -16 0z"/>
<path d="M5085 3451 c-3 -5 -2 -12 3 -15 5 -3 9 1 9 9 0 17 -3 19 -12 6z"/>
<path d="M3086 3434 c-5 -14 -4 -15 9 -4 17 14 19 20 6 20 -5 0 -12 -7 -15
-16z"/>
<path d="M4335 3409 c-4 -6 -5 -12 -2 -15 2 -3 7 2 10 11 7 17 1 20 -8 4z"/>
<path d="M1215 3380 c3 -5 8 -10 11 -10 2 0 4 5 4 10 0 6 -5 10 -11 10 -5 0
-7 -4 -4 -10z"/>
<path d="M1270 3300 c0 -5 5 -10 11 -10 5 0 7 5 4 10 -3 6 -8 10 -11 10 -2 0
-4 -4 -4 -10z"/>
<path d="M2262 3277 c-7 -8 -6 -18 4 -31 8 -11 14 -15 14 -9 0 7 -5 15 -10 18
-8 5 -7 11 1 21 6 8 9 14 6 14 -2 0 -9 -6 -15 -13z"/>
<path d="M1289 3183 c-13 -16 -12 -17 4 -4 9 7 17 15 17 17 0 8 -8 3 -21 -13z"/>
<path d="M4960 3185 c-9 -10 -9 -15 -1 -15 6 0 11 5 11 11 0 5 5 7 12 3 7 -4
8 -3 4 4 -9 15 -11 15 -26 -3z"/>
<path d="M1605 3180 c-4 -6 -12 -7 -18 -3 -8 5 -8 2 0 -9 7 -8 11 -18 8 -21
-3 -4 -2 -4 3 -1 4 3 7 9 7 12 0 4 4 13 8 20 5 6 6 12 3 12 -3 0 -8 -5 -11
-10z"/>
<path d="M4300 3180 c8 -5 20 -10 25 -10 6 0 3 5 -5 10 -8 5 -19 10 -25 10 -5
0 -3 -5 5 -10z"/>
<path d="M4356 3182 c-2 -4 -1 -14 3 -20 6 -10 11 -9 21 3 11 13 10 14 -5 9
-13 -5 -16 -4 -11 4 4 7 5 12 2 12 -3 0 -7 -4 -10 -8z"/>
<path d="M4565 3180 c-4 -6 -10 -8 -14 -6 -4 3 -8 -1 -8 -9 0 -13 4 -12 19 2
18 16 22 23 14 23 -3 0 -8 -5 -11 -10z"/>
<path d="M1555 3171 c-3 -5 -2 -12 3 -15 5 -3 9 1 9 9 0 17 -3 19 -12 6z"/>
<path d="M1770 3170 c-9 -6 -10 -10 -3 -10 6 0 15 5 18 10 8 12 4 12 -15 0z"/>
<path d="M4465 3171 c-3 -5 -2 -12 3 -15 5 -3 9 1 9 9 0 17 -3 19 -12 6z"/>
<path d="M4509 3163 c-13 -16 -12 -17 4 -4 9 7 17 15 17 17 0 8 -8 3 -21 -13z"/>
<path d="M1620 3166 c0 -2 8 -10 18 -17 15 -13 16 -12 3 4 -13 16 -21 21 -21
13z"/>
<path d="M2695 3160 c3 -5 8 -10 11 -10 2 0 4 5 4 10 0 6 -5 10 -11 10 -5 0
-7 -4 -4 -10z"/>
<path d="M2846 3158 c3 -5 10 -6 15 -3 13 9 11 12 -6 12 -8 0 -12 -4 -9 -9z"/>
<path d="M4435 3161 c-3 -5 -2 -12 3 -15 5 -3 9 1 9 9 0 17 -3 19 -12 6z"/>
<path d="M4579 3168 c-5 -18 -6 -38 -1 -34 7 8 12 36 6 36 -2 0 -4 -1 -5 -2z"/>
<path d="M4657 3155 c-4 -8 -1 -17 6 -21 7 -4 9 -4 5 1 -4 4 -3 14 3 22 7 8 8
13 1 13 -5 0 -12 -7 -15 -15z"/>
<path d="M4866 3158 c3 -5 10 -6 15 -3 13 9 11 12 -6 12 -8 0 -12 -4 -9 -9z"/>
<path d="M4693 3145 c0 -8 4 -12 9 -9 5 3 6 10 3 15 -9 13 -12 11 -12 -6z"/>
<path d="M1310 3139 c0 -5 5 -7 10 -4 6 3 10 8 10 11 0 2 -4 4 -10 4 -5 0 -10
-5 -10 -11z"/>
<path d="M1415 3140 c3 -5 8 -10 11 -10 2 0 4 5 4 10 0 6 -5 10 -11 10 -5 0
-7 -4 -4 -10z"/>
<path d="M1455 3140 c3 -5 8 -10 11 -10 2 0 4 5 4 10 0 6 -5 10 -11 10 -5 0
-7 -4 -4 -10z"/>
<path d="M1490 3139 c0 -5 5 -7 10 -4 6 3 10 8 10 11 0 2 -4 4 -10 4 -5 0 -10
-5 -10 -11z"/>
<path d="M1353 3115 c0 -8 4 -12 9 -9 5 3 6 10 3 15 -9 13 -12 11 -12 -6z"/>
<path d="M2395 3121 c-3 -5 -2 -12 3 -15 5 -3 9 1 9 9 0 17 -3 19 -12 6z"/>
<path d="M4796 3122 c-3 -5 1 -9 9 -9 8 0 12 4 9 9 -3 4 -7 8 -9 8 -2 0 -6 -4
-9 -8z"/>
<path d="M2473 3085 c0 -8 4 -12 9 -9 5 3 6 10 3 15 -9 13 -12 11 -12 -6z"/>
<path d="M1543 3013 c14 -16 15 -20 2 -20 -8 0 -15 4 -15 8 0 3 -11 9 -25 11
-13 3 -22 2 -20 -3 3 -4 1 -10 -5 -14 -5 -3 -10 -2 -10 3 0 6 -7 13 -16 16
-14 5 -15 4 -5 -8 10 -12 9 -14 -8 -9 -12 3 -18 10 -14 16 4 6 1 7 -6 3 -7 -5
-10 -14 -7 -21 2 -7 -3 -12 -12 -11 -9 0 -16 -5 -14 -12 1 -8 -2 -11 -7 -8 -5
3 -14 -1 -21 -9 -7 -8 -15 -13 -19 -11 -4 3 -8 -4 -8 -15 -1 -10 3 -19 8 -19
6 0 8 4 5 9 -3 5 2 15 11 22 15 12 16 12 8 -1 -12 -19 -13 -33 -2 -41 5 -3 1
-9 -8 -12 -10 -5 -14 -3 -9 5 4 7 3 8 -5 4 -8 -6 -9 -12 -2 -20 6 -7 7 -17 3
-21 -4 -5 -1 -5 6 -1 7 4 9 12 6 18 -4 7 -2 8 4 4 7 -4 10 -20 7 -38 -5 -29
-4 -30 12 -17 10 7 7 0 -7 -15 -18 -21 -20 -28 -8 -23 13 4 15 2 11 -10 -4
-11 -2 -14 5 -9 7 4 12 2 12 -3 0 -6 -8 -11 -17 -11 -17 -1 -17 -1 -1 -14 10
-7 15 -16 11 -19 -3 -4 -11 -2 -18 3 -8 7 -12 5 -12 -3 0 -17 27 -18 47 -3 13
9 13 9 2 -6 -8 -9 -11 -22 -8 -27 4 -5 1 -13 -5 -17 -7 -4 -9 -3 -5 4 3 6 2
13 -3 16 -4 3 -8 -4 -7 -17 1 -13 -4 -21 -12 -19 -8 1 -11 -2 -7 -8 4 -6 16
-3 32 7 l26 18 -15 -25 c-18 -31 -18 -52 2 -57 13 -4 13 -3 0 6 -8 6 -10 11
-4 11 19 0 24 -12 12 -34 -16 -28 -20 -56 -9 -56 6 0 8 8 6 18 -2 11 3 19 10
19 7 0 12 -8 10 -19 -5 -26 -15 -39 -25 -33 -4 3 -7 -3 -6 -13 0 -9 -5 -16
-12 -14 -8 1 -11 -2 -7 -8 5 -8 11 -8 19 -1 7 6 16 8 20 4 4 -4 4 0 1 9 -5 13
-1 16 14 15 20 -1 20 -1 1 -22 -22 -24 -25 -35 -9 -35 5 0 7 4 4 10 -3 6 1 7
10 3 12 -4 13 -8 4 -13 -6 -5 -9 -15 -6 -25 4 -9 3 -13 -2 -10 -5 3 -13 0 -17
-6 -4 -8 -3 -9 4 -5 7 4 12 2 12 -5 0 -8 5 -7 18 2 15 12 16 12 5 -2 -7 -9
-10 -19 -6 -23 14 -13 10 -46 -6 -46 -14 0 -14 -2 -1 -9 8 -6 17 -8 20 -6 4 2
7 -2 7 -10 0 -18 -2 -18 -30 -4 -22 10 -22 10 -2 -6 11 -9 19 -21 17 -26 -1
-5 2 -9 6 -9 4 0 9 -10 9 -22 1 -13 7 -24 13 -26 5 -2 10 -8 10 -14 0 -7 -5
-7 -13 1 -8 6 -18 7 -22 3 -5 -4 -5 2 -1 13 5 15 4 17 -5 8 -12 -12 -3 -37 11
-28 19 12 35 -67 19 -97 -6 -12 -6 -18 1 -19 5 -1 16 -2 23 -3 6 -1 11 -7 10
-14 -2 -7 2 -12 7 -12 13 0 13 13 1 25 -6 6 -4 15 6 24 12 11 14 10 11 -4 -2
-12 5 -19 22 -22 24 -3 24 -3 5 11 -20 15 -19 15 3 9 12 -3 22 -9 22 -14 0 -5
5 -9 11 -9 5 0 8 4 4 9 -3 5 -1 12 4 15 5 4 13 1 17 -5 5 -9 11 -6 22 7 13 18
14 18 7 -6 -7 -22 -6 -23 8 -12 9 8 18 9 21 3 3 -5 1 -12 -4 -14 -6 -3 -5 -4
2 -3 7 2 12 10 10 19 -1 8 2 18 8 22 6 4 10 3 9 -2 -5 -28 2 -32 35 -18 26 11
37 12 42 3 5 -7 12 -5 22 8 13 18 14 18 7 -6 -7 -22 -6 -23 8 -12 9 8 18 9 21
3 3 -5 1 -12 -4 -14 -6 -3 -5 -4 2 -3 7 2 12 14 10 27 l-2 24 14 -25 c9 -14
15 -19 16 -11 0 8 3 11 7 8 3 -4 12 -2 19 4 9 7 19 7 32 0 13 -7 22 -7 31 2
10 9 12 9 9 -3 -2 -9 6 -15 22 -17 14 -1 17 1 8 3 -21 6 -23 20 -6 30 7 4 8 3
4 -4 -4 -7 -1 -12 8 -12 9 0 16 -5 16 -11 0 -5 5 -7 10 -4 6 4 7 12 3 18 -4 7
6 4 21 -7 16 -10 26 -14 22 -8 -3 5 5 10 19 10 14 0 22 -4 19 -9 -3 -5 2 -6
10 -3 9 3 14 9 11 13 -2 4 6 6 18 5 12 -1 37 -3 55 -3 23 -1 31 -5 27 -13 -4
-7 0 -5 9 6 8 10 21 16 28 13 10 -4 10 -6 1 -6 -7 -1 -13 -6 -13 -12 0 -8 4
-8 14 0 8 7 13 21 11 31 -2 13 1 17 10 14 8 -3 11 -13 8 -22 -4 -14 -3 -15 5
-2 7 9 7 19 2 25 -12 14 7 35 25 28 10 -3 12 2 8 16 -3 13 -1 21 6 21 7 0 9
-5 5 -12 -4 -7 -3 -8 5 -4 6 4 8 12 5 18 -5 8 -1 9 12 5 18 -7 18 -6 1 7 -12
10 -15 16 -7 21 6 4 9 14 6 22 -3 8 -1 11 4 8 6 -3 13 1 16 9 3 9 11 13 18 9
6 -4 5 1 -3 10 -12 15 -12 17 4 10 14 -5 17 -3 12 10 -4 11 1 21 16 29 12 6
23 10 25 9 2 -2 6 0 9 3 3 3 -3 4 -14 2 -11 -3 -26 0 -34 5 -11 8 -10 9 6 7
14 -2 20 3 20 17 0 14 7 20 22 19 18 0 20 3 13 22 -10 25 11 51 31 38 7 -4 9
-3 5 4 -3 5 -3 12 1 15 5 2 2 2 -5 1 -9 -3 -10 1 -2 16 6 11 13 20 16 20 3 0
2 -5 -2 -12 -4 -7 -3 -8 5 -4 9 6 9 11 -1 24 -10 12 -10 14 0 8 7 -4 12 -2 12
4 0 6 5 8 13 4 9 -6 9 -4 -1 8 -9 11 -10 18 -2 23 6 3 7 11 4 17 -4 7 -2 8 5
4 9 -6 9 -11 0 -22 -8 -10 -8 -14 0 -14 6 0 11 3 12 8 0 4 2 18 3 31 2 13 11
28 20 33 13 7 14 13 6 23 -9 11 -6 12 12 8 18 -4 20 -3 8 6 -13 10 -13 11 0
11 13 0 13 1 0 10 -12 8 -11 10 8 10 12 0 22 5 22 11 0 5 -4 8 -8 5 -5 -3 -9
2 -9 10 0 8 5 13 11 11 10 -3 46 27 46 40 0 4 -5 2 -12 -5 -7 -7 -16 -12 -22
-12 -5 0 1 9 13 19 13 11 24 28 25 38 2 10 11 17 20 17 12 -2 14 1 6 11 -12
14 22 60 35 47 5 -4 5 -2 2 5 -4 6 -1 14 5 17 7 3 3 3 -10 0 -23 -6 -23 -5 -5
15 19 23 28 28 17 9 -4 -7 -3 -8 4 -4 6 4 8 14 5 23 -4 10 -2 14 4 10 6 -4 19
3 29 14 14 15 15 20 4 17 -8 -2 -14 3 -13 10 3 13 -1 14 -64 16 -23 1 -45 4
-49 9 -10 10 -26 9 -20 -1 3 -5 -1 -9 -9 -9 -8 0 -12 4 -9 8 2 4 0 10 -6 14
-5 3 -10 -2 -10 -12 0 -15 -2 -16 -10 -3 -8 12 -12 13 -19 2 -9 -15 -20 -15
-36 -3 -5 5 -20 7 -32 6 -13 -1 -23 2 -23 6 0 4 -11 6 -24 5 -20 -1 -22 -4
-13 -15 10 -12 9 -12 -10 -2 -13 6 -23 17 -23 24 0 8 -3 8 -9 -2 -5 -8 -14
-10 -22 -5 -11 6 -12 5 -2 -7 10 -13 10 -16 -2 -16 -8 0 -15 3 -15 7 0 4 -7 7
-15 7 -8 0 -15 -4 -15 -9 0 -5 -7 -2 -16 7 -15 15 -18 15 -41 -1 -14 -9 -23
-12 -19 -6 10 16 -22 22 -38 7 -12 -13 -15 -12 -21 3 -6 16 -8 16 -21 -2 -12
-18 -19 -15 -15 7 0 4 -4 7 -10 7 -6 0 -9 -8 -7 -18 3 -11 0 -19 -8 -19 -7 0
-11 4 -8 9 3 4 0 8 -5 8 -6 0 -11 -6 -11 -14 0 -8 -4 -18 -10 -21 -6 -4 -7 1
-3 12 4 14 3 15 -6 7 -7 -6 -14 -20 -15 -30 -2 -10 -9 -20 -16 -22 -7 -3 -10
0 -6 6 4 6 -2 8 -16 4 l-22 -5 23 -9 c22 -8 22 -8 3 -35 -10 -16 -17 -35 -15
-43 3 -10 0 -9 -7 3 -15 23 -34 23 -21 -1 7 -14 6 -19 -4 -19 -7 0 -11 7 -7
15 3 9 1 13 -5 9 -7 -4 -10 0 -8 10 1 10 0 22 -3 27 -10 18 -8 55 3 48 5 -3 4
1 -3 10 -9 12 -10 17 -1 20 7 2 5 9 -7 18 -16 13 -17 13 -10 0 4 -8 1 -6 -8 4
-9 11 -29 20 -46 21 -25 2 -28 0 -17 -13 10 -13 9 -14 -11 -3 -18 10 -27 10
-38 0 -15 -12 -20 0 -6 17 4 5 -1 1 -10 -9 -16 -17 -22 -16 -19 5 1 10 -39 1
-55 -13 -12 -10 -20 -7 -41 12 -14 13 -23 18 -19 12 4 -7 2 -13 -4 -13 -6 0
-8 -5 -4 -12 5 -9 3 -9 -9 1 -9 7 -14 18 -10 25 4 7 1 7 -8 -1 -12 -10 -18
-10 -28 0 -7 6 -12 8 -11 2 2 -5 2 -17 1 -25 -1 -13 -3 -13 -10 -1 -11 17 -39
23 -46 11 -3 -5 4 -7 15 -5 11 2 18 0 15 -5 -7 -11 -44 -2 -90 22 -19 10 -19
10 -2 -9z m431 -11 c3 -5 -1 -9 -9 -9 -8 0 -15 4 -15 9 0 4 4 8 9 8 6 0 12 -4
15 -8z m846 -47 c0 -12 -19 -12 -23 0 -4 9 -1 12 9 8 7 -3 14 -7 14 -8z
m-1406 -333 c3 -5 -1 -9 -9 -9 -8 0 -12 4 -9 9 3 4 7 8 9 8 2 0 6 -4 9 -8z
m92 -537 c-3 -20 -16 -31 -16 -13 0 13 8 28 16 28 1 0 1 -7 0 -15z"/>
<path d="M2715 3019 c-4 -6 -5 -12 -2 -15 2 -3 7 2 10 11 7 17 1 20 -8 4z"/>
<path d="M2760 3020 c-8 -5 -12 -12 -9 -15 4 -3 12 1 19 10 14 17 11 19 -10 5z"/>
<path d="M4310 3026 c0 -2 7 -7 16 -10 8 -3 12 -2 9 4 -6 10 -25 14 -25 6z"/>
<path d="M4376 3013 c2 -7 -3 -10 -12 -6 -7 3 -14 0 -14 -6 0 -6 -8 -11 -18
-11 -10 0 -29 -11 -42 -25 -12 -13 -27 -22 -33 -18 -6 3 -7 1 -3 -5 10 -17 14
-15 43 16 23 24 24 24 14 4 -7 -13 -18 -25 -26 -28 -7 -3 -12 -16 -10 -30 2
-21 0 -22 -13 -12 -11 9 -14 9 -9 1 4 -7 0 -17 -10 -23 -15 -10 -15 -11 -1 -6
9 2 19 -2 22 -10 3 -8 1 -12 -4 -9 -5 3 -18 1 -27 -4 -10 -6 -12 -11 -5 -11 6
0 11 -3 11 -7 -4 -22 2 -33 14 -28 15 8 -15 -16 -39 -31 -17 -10 -17 -11 -1
-11 9 0 17 4 17 9 0 4 5 8 11 8 8 0 8 -4 0 -14 -8 -10 -9 -16 -1 -21 12 -7 4
-25 -12 -25 -5 0 -7 7 -4 16 3 8 2 12 -4 9 -16 -10 -12 -33 8 -45 15 -10 15
-11 -4 -7 -13 3 -21 -1 -21 -9 0 -7 4 -11 8 -9 4 3 9 -2 12 -10 4 -10 1 -12
-11 -8 -15 6 -14 3 2 -15 12 -14 15 -22 6 -22 -7 0 -10 -7 -6 -15 7 -19 1 -19
-18 1 -19 18 -22 2 -3 -18 18 -19 18 -48 -1 -41 -11 5 -13 3 -7 -8 13 -20 13
-49 1 -41 -17 10 -37 11 -30 1 3 -5 10 -7 15 -4 5 4 9 3 10 -2 0 -4 2 -16 4
-26 2 -9 -1 -15 -6 -11 -5 3 -7 9 -4 14 6 10 -21 7 -32 -4 -4 -4 -2 -6 5 -4 8
2 18 -7 23 -19 7 -18 5 -23 -8 -23 -14 0 -14 -2 3 -15 19 -14 19 -14 -2 -10
-17 3 -21 -1 -18 -22 1 -14 6 -28 10 -31 4 -4 4 2 0 13 -5 15 -4 17 5 8 14
-14 2 -36 -17 -29 -19 7 -18 -4 4 -21 16 -14 16 -14 0 -9 -21 6 -34 -9 -17
-20 8 -5 9 -3 4 7 -5 8 -4 10 0 6 12 -10 15 -38 4 -31 -5 3 -9 -2 -9 -10 0 -9
5 -16 11 -16 6 0 1 -9 -12 -20 -15 -12 -20 -23 -14 -27 14 -11 17 -33 5 -33
-6 0 -10 5 -10 10 0 6 -5 10 -11 10 -8 0 -9 -4 0 -13 6 -8 7 -18 3 -22 -4 -5
-1 -4 7 0 11 6 13 4 8 -10 -8 -20 10 -47 27 -39 6 3 0 -4 -13 -15 -25 -23 -21
-27 11 -10 13 7 23 8 30 1 7 -7 20 -7 40 0 24 8 32 8 39 -3 7 -11 9 -9 9 6 1
18 2 18 11 -3 5 -13 6 -29 2 -34 -4 -7 -1 -8 6 -4 7 5 10 14 7 21 -2 7 2 16
10 19 8 3 13 2 10 -2 -2 -4 4 -8 14 -8 15 0 17 3 7 15 -10 12 -9 13 9 3 16 -8
24 -8 33 1 10 9 12 9 9 -3 -2 -9 6 -15 22 -17 14 -1 17 1 8 3 -21 6 -23 20 -6
30 7 4 8 3 4 -4 -4 -7 -1 -12 8 -12 9 0 16 -5 16 -11 0 -5 5 -7 10 -4 6 4 7
12 3 18 -4 7 5 4 19 -5 19 -13 29 -15 34 -6 5 7 3 8 -6 3 -9 -5 -11 -4 -6 4 6
9 11 9 21 1 10 -8 16 -7 25 7 9 15 10 14 4 -7 -6 -22 -5 -23 10 -11 13 11 19
11 33 0 9 -8 14 -9 11 -4 -4 6 5 15 18 22 13 6 22 8 19 3 -5 -9 41 -17 68 -12
10 2 14 8 10 15 -3 7 3 4 15 -6 16 -15 24 -17 39 -7 17 11 17 11 -2 5 -13 -4
-16 -3 -10 3 6 6 19 12 30 14 11 2 19 10 17 17 -2 9 3 11 14 7 14 -5 15 -4 4
9 -11 13 -10 14 5 9 13 -5 16 -4 11 4 -4 7 -2 12 5 12 8 0 7 5 -2 17 -12 15
-12 16 4 10 13 -5 16 -3 10 6 -12 19 -12 38 0 30 6 -4 8 0 4 9 -3 9 0 21 6 27
6 6 8 11 4 11 -4 0 -3 9 3 20 7 14 7 20 0 20 -5 0 -10 7 -10 15 0 8 5 15 11
15 5 0 7 -5 3 -12 -4 -7 -3 -8 4 -4 8 5 9 13 3 24 -14 27 -14 33 6 49 10 8 12
11 4 7 -11 -5 -13 -3 -8 10 4 10 7 25 7 34 0 15 2 15 10 2 7 -12 9 -10 7 7 0
12 -5 19 -9 17 -4 -3 -4 6 2 20 5 14 6 26 3 26 -4 0 -2 5 5 12 14 14 16 32 4
24 -5 -3 -9 1 -9 8 0 8 6 12 13 9 6 -2 15 1 20 8 4 7 3 10 -3 6 -6 -4 -14 0
-17 9 -3 8 -2 13 3 10 5 -3 12 1 15 10 9 24 7 31 -5 14 -8 -11 -9 -9 -3 10 4
14 10 26 14 28 5 2 4 17 0 33 -7 24 -6 28 3 21 9 -8 12 -4 13 14 1 13 -2 21
-8 18 -5 -3 -4 3 3 14 7 12 18 18 24 14 5 -3 4 2 -4 11 -7 9 -18 14 -25 11 -6
-3 0 4 13 15 13 12 18 21 11 21 -7 0 -2 9 11 20 13 11 18 19 10 18 -20 -4 -22
30 -3 42 10 5 12 10 6 10 -6 0 -11 7 -11 15 0 9 6 14 13 11 9 -3 10 3 4 24 -4
16 -6 30 -4 33 2 2 -8 3 -23 3 -16 -1 -36 2 -47 7 -12 6 -16 5 -12 -1 3 -6 2
-13 -4 -17 -5 -3 -10 -1 -10 6 0 8 -5 7 -17 -2 -14 -12 -16 -12 -8 0 6 11 3
13 -14 8 -14 -3 -24 0 -28 9 -4 11 -9 9 -25 -9 -15 -17 -18 -18 -14 -4 3 9 1
17 -4 17 -6 0 -10 -8 -10 -17 0 -15 -2 -16 -10 -3 -9 13 -11 13 -20 0 -9 -13
-14 -7 -11 13 2 13 -11 8 -24 -10 -9 -13 -14 -13 -20 -3 -6 9 -4 11 5 5 8 -5
11 -4 7 3 -4 5 -16 8 -28 5 -13 -4 -16 -8 -9 -13 6 -4 -5 -6 -25 -6 -23 1 -34
5 -31 13 6 16 -35 8 -46 -9 -7 -12 -12 -4 -9 15 0 4 -3 7 -9 7 -5 0 -10 -8
-10 -17 0 -13 -2 -15 -8 -5 -5 8 -16 10 -27 6 -10 -4 -16 -3 -13 2 4 5 -13 9
-37 9 -37 0 -42 -2 -32 -14 10 -12 9 -13 -10 -3 -12 7 -23 15 -25 19 -3 5 -3
3 -2 -4z m74 -7 c0 -3 -4 -8 -10 -11 -5 -3 -10 -1 -10 4 0 6 5 11 10 11 6 0
10 -2 10 -4z m-190 -187 c0 -5 -4 -9 -8 -9 -5 0 -9 7 -9 15 0 8 4 12 9 9 4 -3
8 -9 8 -15z m-120 -619 c0 -5 -5 -10 -11 -10 -5 0 -7 5 -4 10 3 6 8 10 11 10
2 0 4 -4 4 -10z m70 -124 c0 -2 -7 -7 -16 -10 -8 -3 -12 -2 -9 4 6 10 25 14
25 6z"/>
<path d="M4626 3014 c-5 -14 -4 -15 9 -4 17 14 19 20 6 20 -5 0 -12 -7 -15
-16z"/>
<path d="M1770 3010 c0 -5 5 -10 11 -10 5 0 7 5 4 10 -3 6 -8 10 -11 10 -2 0
-4 -4 -4 -10z"/>
<path d="M2590 3009 c0 -5 5 -7 10 -4 6 3 10 8 10 11 0 2 -4 4 -10 4 -5 0 -10
-5 -10 -11z"/>
<path d="M2075 2900 c-10 -11 -16 -22 -14 -24 2 -2 12 7 22 20 22 29 17 32 -8
4z"/>
<path d="M2029 2897 c6 -8 7 -18 3 -22 -4 -5 -1 -5 6 -1 10 6 10 11 1 22 -6 8
-14 14 -16 14 -3 0 0 -6 6 -13z"/>
<path d="M1344 2829 c-3 -6 -2 -15 3 -20 5 -5 9 -1 9 11 0 23 -2 24 -12 9z"/>
<path d="M4958 2803 c7 -3 16 -2 19 1 4 3 -2 6 -13 5 -11 0 -14 -3 -6 -6z"/>
<path d="M1333 2772 c0 -12 5 -22 9 -22 11 0 10 12 -2 30 -7 12 -9 10 -7 -8z"/>
<path d="M4170 2700 c0 -5 5 -10 11 -10 5 0 7 5 4 10 -3 6 -8 10 -11 10 -2 0
-4 -4 -4 -10z"/>
<path d="M4195 2620 c3 -5 8 -10 11 -10 2 0 4 5 4 10 0 6 -5 10 -11 10 -5 0
-7 -4 -4 -10z"/>
<path d="M1334 2596 c1 -8 5 -18 8 -22 4 -3 5 1 4 10 -1 8 -5 18 -8 22 -4 3
-5 -1 -4 -10z"/>
<path d="M2606 2582 c-3 -5 1 -9 9 -9 8 0 12 4 9 9 -3 4 -7 8 -9 8 -2 0 -6 -4
-9 -8z"/>
<path d="M1355 2559 c-3 -4 2 -6 10 -5 21 3 28 13 10 13 -9 0 -18 -4 -20 -8z"/>
<path d="M4170 2560 c0 -5 5 -10 11 -10 5 0 7 5 4 10 -3 6 -8 10 -11 10 -2 0
-4 -4 -4 -10z"/>
<path d="M4167 2519 c7 -7 15 -10 18 -7 3 3 -2 9 -12 12 -14 6 -15 5 -6 -5z"/>
<path d="M4135 2429 c-4 -6 -5 -12 -2 -15 2 -3 7 2 10 11 7 17 1 20 -8 4z"/>
<path d="M2505 2421 c-3 -5 -2 -12 3 -15 5 -3 9 1 9 9 0 17 -3 19 -12 6z"/>
<path d="M1413 2357 c0 -7 9 -13 19 -13 10 0 18 1 18 3 0 1 -8 7 -18 12 -13 7
-19 6 -19 -2z"/>
<path d="M2470 2366 c0 -2 7 -7 16 -10 8 -3 12 -2 9 4 -6 10 -25 14 -25 6z"/>
<path d="M4875 2360 c-3 -5 -1 -10 4 -10 6 0 11 5 11 10 0 6 -2 10 -4 10 -3 0
-8 -4 -11 -10z"/>
<path d="M1366 2338 c3 -5 10 -6 15 -3 13 9 11 12 -6 12 -8 0 -12 -4 -9 -9z"/>
<path d="M4096 2307 c3 -10 9 -15 12 -12 3 3 0 11 -7 18 -10 9 -11 8 -5 -6z"/>
<path d="M1386 2282 c-3 -5 1 -9 9 -9 8 0 15 4 15 9 0 4 -4 8 -9 8 -6 0 -12
-4 -15 -8z"/>
<path d="M1415 2220 c3 -5 8 -10 11 -10 2 0 4 5 4 10 0 6 -5 10 -11 10 -5 0
-7 -4 -4 -10z"/>
<path d="M2396 2213 c-6 -14 -5 -15 5 -6 7 7 10 15 7 18 -3 3 -9 -2 -12 -12z"/>
<path d="M4095 2209 c-4 -6 -5 -12 -2 -15 2 -3 7 2 10 11 7 17 1 20 -8 4z"/>
<path d="M1385 2160 c-3 -6 1 -7 9 -4 18 7 21 14 7 14 -6 0 -13 -4 -16 -10z"/>
<path d="M1460 2139 c0 -5 5 -7 10 -4 6 3 10 8 10 11 0 2 -4 4 -10 4 -5 0 -10
-5 -10 -11z"/>
<path d="M4079 2148 c-5 -18 -6 -38 -1 -34 7 8 12 36 6 36 -2 0 -4 -1 -5 -2z"/>
<path d="M4090 2082 c0 -4 9 -8 20 -9 11 -1 18 2 15 8 -7 11 -35 12 -35 1z"/>
<path d="M1760 2060 c-8 -5 -12 -12 -9 -15 4 -3 12 1 19 10 14 17 11 19 -10 5z"/>
<path d="M1911 2053 c0 -11 3 -13 6 -5 2 6 10 9 15 6 7 -4 8 -2 4 4 -11 18
-26 14 -25 -5z"/>
<path d="M2156 2055 c-11 -8 -15 -15 -9 -15 6 0 16 7 23 15 16 19 11 19 -14 0z"/>
<path d="M4604 2059 c-12 -20 12 -31 27 -12 13 17 13 17 -5 3 -18 -14 -19 -13
-13 3 7 19 2 23 -9 6z"/>
<path d="M4710 2065 c0 -5 5 -17 10 -25 5 -8 10 -10 10 -5 0 6 -5 17 -10 25
-5 8 -10 11 -10 5z"/>
<path d="M2190 2051 c0 -6 4 -13 10 -16 6 -3 7 1 4 9 -7 18 -14 21 -14 7z"/>
<path d="M1620 2046 c0 -2 8 -10 18 -17 15 -13 16 -12 3 4 -13 16 -21 21 -21
13z"/>
<path d="M2050 2042 c0 -5 7 -9 15 -9 8 0 12 4 9 9 -3 4 -9 8 -15 8 -5 0 -9
-4 -9 -8z"/>
<path d="M4350 2040 c0 -5 5 -10 10 -10 6 0 10 5 10 10 0 6 -4 10 -10 10 -5 0
-10 -4 -10 -10z"/>
<path d="M4500 2046 c0 -2 8 -10 18 -17 15 -13 16 -12 3 4 -13 16 -21 21 -21
13z"/>
<path d="M1429 2023 c-13 -16 -12 -17 4 -4 9 7 17 15 17 17 0 8 -8 3 -21 -13z"/>
<path d="M1813 2025 c0 -8 4 -12 9 -9 5 3 6 10 3 15 -9 13 -12 11 -12 -6z"/>
<path d="M1775 2020 c3 -5 8 -10 11 -10 2 0 4 5 4 10 0 6 -5 10 -11 10 -5 0
-7 -4 -4 -10z"/>
<path d="M1850 2019 c0 -5 5 -7 10 -4 6 3 10 8 10 11 0 2 -4 4 -10 4 -5 0 -10
-5 -10 -11z"/>
<path d="M2135 2020 c3 -5 8 -10 11 -10 2 0 4 5 4 10 0 6 -5 10 -11 10 -5 0
-7 -4 -4 -10z"/>
<path d="M4116 2022 c-3 -5 1 -9 9 -9 8 0 12 4 9 9 -3 4 -7 8 -9 8 -2 0 -6 -4
-9 -8z"/>
</g>
</svg>
